<?xml version="1.0" encoding="utf-8"?>
<!-- Generator: Adobe Illustrator 19.1.0, SVG Export Plug-In . SVG Version: 6.00 Build 0)  -->
<svg version="1.1" id="Layer_1" xmlns="http://www.w3.org/2000/svg" xmlns:xlink="http://www.w3.org/1999/xlink" x="0px" y="0px"
	 width="206.6px" height="117.8px" viewBox="-202 338.2 206.6 117.8" style="enable-background:new -202 338.2 206.6 117.8;"
	 xml:space="preserve">
<style type="text/css">
	.st0{fill:#00643E;}
	.st1{display:none;enable-background:new    ;}
	.st2{display:inline;fill:#00643E;}
	.st3{display:inline;fill:#F99B1F;}
	.st4{clip-path:url(#SVGID_2_);}
	.st5{fill:url(#SVGID_3_);}
	.st6{clip-path:url(#SVGID_5_);}
	.st7{fill:url(#SVGID_6_);}
	.st8{fill:#F99B1F;}
	.st9{clip-path:url(#SVGID_8_);}
	.st10{fill:url(#SVGID_9_);}
	.st11{clip-path:url(#SVGID_11_);}
	.st12{fill:url(#SVGID_12_);}
</style>
<g id="Layer_2">
	<g id="Layer_1-2">
		<path class="st0" d="M-66.2,355.5c-0.9,0.4-1.3-1.9-1.4-2.5s-0.1-1.1-1-0.8c-0.8,0.2-0.3,1.1-0.1,1.6c0.1,0.6,0.3,1.3,0.4,2.1
			c0,0-0.1,0.6-0.7,0.7c-1.3,0.4-1.3-2.9-1.3-2.9s-0.2-0.6-0.7-0.6s-0.8,0.7-0.8,0.8c0.1,1.1,0.4,2.1,0.8,3.1
			c0.7,1.9,1.9,1.6,2.5,1.3c0.7-0.2,1-1.3,1.2-1.5c0.2-0.1,2,0.2,2.2-0.7c0.7-2.2-0.9-4.2-1.2-4.8c-0.3-0.6-1,0-1,0
			C-66.4,352.6-65.4,355.2-66.2,355.5 M-22,345.5c-1.8,0.8-2.9,2.4-2.9,4.2c0,1.8,2.3,2.8,2.3,2.8c-0.3,0.7-0.7,1.6-0.3,2.4
			c0.2,0.8,0.4,0.6,0.4,0.6c0.4-1.7,1.9-3,3.4-3.6c0.9-0.2,0.9-0.7,0.9-0.7s0.8-2.7,0.3-2.7c-0.9,0.2-1.6,0.6-2.3,1
			c-0.4,0.2-1.9,0.6-2.2,0.1c-0.8-1.2,0.9-1.2,1.1-1.2s0.8,0,2.1-0.8c0.4-0.4,0.3-0.7,0.1-1.2C-19.6,345.6-20.9,345.1-22,345.5
			 M-27.1,346c2.1-1.6,4.3-3,6.5-4.4c0.9-0.5,1.2-1.5,1.1-2.3c-3.1,1.2-5.7,2.9-8.1,5.1C-28.5,345.1-27.3,346-27.1,346 M-79.6,355.9
			c4.1-1.7,7.5-4.5,9.9-8.1l1,0.7c0,0,1.2-0.6,1-3.6l-0.7-1c0,0,0.9-2.4-0.4-3.6c-1.2-1.2-3.1,0.5-3.5,1.2c-0.4,0.6-1.6,3,1.3,5.5
			c0,0-2.5,4.7-10.6,8.6c-0.1,0.1-0.2,0.2-0.3,0.4C-82.2,356.4-81.5,356.6-79.6,355.9 M-71,342.2c0.8-0.7,2,1,0.3,1.8
			C-71,344.1-71.6,342.9-71,342.2 M-17.1,365.1l4.5-4.8c0,0,0.3,13,0,16.1s1.8-1.3,2.1-5c0.2-3.6,0-13.7,0-13.7s11.4-12,12.9-18.1
			c0.3-1.5-0.7-1.1-1-0.6s-9.1,12.8-12.2,15.1l-0.9-6.3c0,0,0.2-0.8,0.8-0.5c0.5,0.3,0.7,0.6,1,0.5s0.1-0.6,0.1-0.6l-2.9-7.5
			c0,0-0.2-0.6-0.7-0.1c-0.4,1-1,1.8-1.3,2.9c0,0,2.1,8.7,1.8,14.1l-5.9,6.2l-13.3-13.7c0,0-0.4-0.8,0.3-1c0.9-0.1,0.9-0.6,0.2-1
			s-6.7-4.6-6.7-4.6l0.3,4.2l17.1,18.7c-1.9,1.6-3,3.9-3.1,6.3c0.1,3.9,1.3,4.2,3,4.2c1.6,0.1,5.1-1.1,5.3-5.6
			C-15.5,366.8-17.2,365.1-17.1,365.1 M-19.5,371.4c-1.6,0.2-2.2-0.1-2.2-0.8c0-0.7,1-3,2.7-3.6c0,0,1.4,1.3,1.4,2.1
			C-17.6,370.2-18.4,371.2-19.5,371.4 M-28.5,370.3c-0.1-4.7-5.1-5.2-5.1-5.2c0.4-0.4,1.6-2.4,1.9-5.7c0.2-3.8-1.6-6.8-2.1-6.8
			s-2.3,5.6-2.7,8.1c-0.3,2.4-1.4,2.9-1.4,2.9c-1,1-3,1.7-8.7,2.5s-9.2-2.1-10.3-4.8c-1.1-2.8-3-21-3.2-22c-0.1-1.1-0.7-0.7-0.9-0.2
			c-0.3,2.8-0.7,5.7-0.3,8.5c0.1,3.4,1.2,7.5,1.4,10.3c0.3,4.2-2.9,6.7-4.2,6.8c-1.3,0.2-1.4,0.8-1.4,0.8s-0.9,3.3-0.7,3.5
			c0.2,0.2,4.4,0.1,4.9,0.1s1.9,0.1,1.3,1c-0.2,0.5-3,4-9.1,5.2c-2,0.5-4.1,0.5-6,0c-1.4-0.5-2.7-1.3-3.5-2.7
			c-2.9-4.7,0.7-9.8,0.3-10.3c-0.9-1.3-3.5,4.2-3.5,7c0,4,3,7.4,4.4,8.1c3.8,1.8,8.4,1.8,12-0.1c6.5-3,8.4-8,8-9.4
			c-0.2-1.1-1.1-1.8-2.2-2.1c-0.4-0.1-0.4-0.6-0.3-1c0.2-0.4,0.7-0.6,1.3,0c1,0.8,3.2,4.7,9.5,5.1c3,0,5.9-0.5,8.7-1.3
			c0.4-0.1,2.7-1.6,3-0.1c0.3,2.1,1,5.6,5.3,6.3C-31.5,374.9-28.3,375.3-28.5,370.3 M-34.2,358.8c0.3-0.1,1.1,1,0.7,2.2
			c-0.4,1.2-0.9,1.9-1.8,1.3C-35.9,361.7-34.8,359-34.2,358.8 M-33.5,370.8c-0.7-0.4-1.6-1.3-1.1-2.1c0.2-0.4,3.1,0,3.5,1.6
			C-31,371.2-32.9,371-33.5,370.8 M-53.4,375.4c0.9-0.5,1.2-1.5,1.1-2.4c-3,1.2-5.7,2.9-8.1,5.1c-0.9,0.8,0.2,1.7,0.4,1.7
			C-57.8,378.2-55.6,376.7-53.4,375.4"/>
		<g class="st1">
			<path class="st2" d="M-59.9,414.8h-11l-6.9-11.3v11h-14.4v-35.7h10.3l7.6,12.1v-12.1h14.5L-59.9,414.8L-59.9,414.8z"/>
			<path class="st2" d="M-53.6,378.8h20.3c4.2,0,7.3,0.8,9.4,2.7c2.1,1.8,3.2,4.2,3.2,7.3c0,3.4-1.5,5.9-4.2,7.6
				c1.7,1,3,2.1,3.9,3.4s1.3,2.9,1.3,4.8c0,3-1,5.3-3,7.1s-4.8,2.7-8.2,2.7h-22.8L-53.6,378.8L-53.6,378.8z M-39.2,385.9v6.9h0.3
				c1.6,0,2.7-0.2,3.3-0.7c0.7-0.5,1-1.5,1-2.7c0-2.3-1.2-3.5-3.8-3.5L-39.2,385.9L-39.2,385.9z M-39.2,398.9v7.8h0.4
				c1.7,0,2.9-0.2,3.6-0.8c0.7-0.6,1.1-1.5,1.1-2.9c0-2.7-1.3-4-4.1-4h-1V398.9z"/>
			<path class="st2" d="M11.7,405.6v9h-27v-35.8h27v9H-0.9v4.4h8.8v9h-8.8v4.4H11.7z"/>
		</g>
		<g class="st1">
			<path class="st3" d="M-77.6,436.6v2.5c-1.5,2.2-3.7,3.1-6.4,3.1c-2.3,0-4.2-0.7-5.5-2.1c-1.5-1.5-2.1-3.3-2.1-5.6
				c0-2.2,0.7-4,1.9-5.3c1.3-1.3,3-2.1,5-2.1c1,0,2,0.2,2.9,0.6s1.7,1,2.3,1.7c0.6,0.7,1.1,1.6,1.5,2.5c0.3,1,0.4,2.2,0.4,3.6h-6.9
				c0.2,0.7,0.7,1.3,1.2,1.7c0.6,0.4,1.2,0.6,2,0.6C-79.7,438.1-78.6,437.5-77.6,436.6z M-84.9,433.2h3.2c0-0.7-0.2-1.3-0.4-1.7
				c-0.3-0.4-0.7-0.6-1.1-0.6s-0.8,0.2-1.1,0.6C-84.7,431.8-84.9,432.5-84.9,433.2z"/>
			<path class="st3" d="M-75.9,437.2v-4.6h7.7v4.6H-75.9z"/>
			<path class="st3" d="M-59.3,423.7v4.4c0.9-0.4,1.7-0.6,2.6-0.6c1.9,0,3.5,0.7,4.7,2.1c1.2,1.3,1.9,3,1.9,5.2c0,2.1-0.7,3.9-2,5.3
				c-1.3,1.5-3.1,2.2-5.4,2.2H-66v-18.6H-59.3z M-59.3,436.8L-59.3,436.8c0.7,0,1.1,0,1.4-0.1s0.6-0.2,0.8-0.5
				c0.2-0.2,0.3-0.7,0.3-1.2s-0.1-1-0.4-1.3c-0.2-0.4-0.7-0.5-1.1-0.5c-0.3,0-0.8,0.1-1.1,0.4L-59.3,436.8L-59.3,436.8L-59.3,436.8z
				"/>
			<path class="st3" d="M-41.5,430.8c0.9-2.2,2.1-3.3,3.8-3.3c0.9,0,1.7,0.4,2.2,1c0.6,0.6,0.9,1.5,0.9,2.5c0,1.1-0.3,1.9-0.9,2.5
				c-0.6,0.6-1.3,1-2.3,1c-1.1,0-2-0.5-2.8-1.3c-0.7,0.6-1,1.8-1,3.5v5.5h-6.7v-14.5h6.7L-41.5,430.8
				C-41.6,430.8-41.5,430.8-41.5,430.8z"/>
			<path class="st3" d="M-33.9,433.5v-4.3c1.9-1.1,4.1-1.7,6.5-1.7c2.3,0,4,0.5,5.1,1.6s1.7,2.8,1.7,5v8h-6.7V441
				c-1,0.8-2.1,1.2-3.3,1.2c-1,0-1.9-0.4-2.6-1.1c-0.7-0.7-1-1.6-1-2.7c0-1.2,0.4-2.3,1.2-3c0.9-0.7,1.9-1.2,3.3-1.2
				c0.8,0,1.6,0.1,2.3,0.4c0-0.7-0.2-1.2-0.7-1.6c-0.4-0.4-1.1-0.6-2-0.6C-31.2,432.3-32.5,432.8-33.9,433.5z M-27.3,438.9v-2.1
				c-0.4-0.1-0.8-0.2-1.1-0.2c-0.4,0-0.8,0.1-1,0.4c-0.2,0.2-0.3,0.5-0.3,1c0,0.4,0.1,0.7,0.4,1c0.3,0.2,0.6,0.4,1,0.4
				C-27.9,439.2-27.5,439.1-27.3,438.9z"/>
			<path class="st3" d="M-11.2,427.6v1.8c1.1-1.3,2.6-1.9,4.1-1.9s2.8,0.5,3.6,1.5s1.2,2.3,1.2,4.2v9h-6.3v-8.5
				c0-1.2-0.4-1.8-1.2-1.8c-0.4,0-0.8,0.1-1.2,0.5v9.8h-6.7v-14.5h6.6L-11.2,427.6L-11.2,427.6z"/>
			<path class="st3" d="M12.4,428.1v6.3c-1.3-0.7-2.6-1.1-3.8-1.1c-0.7,0-1.1,0.1-1.6,0.4c-0.3,0.2-0.6,0.5-0.6,1
				c0,1,0.8,1.5,2.3,1.5c1.3,0,2.5-0.2,3.5-0.7v6.3c-1.3,0.5-2.8,0.6-4.2,0.6c-2.7,0-4.8-0.7-6.2-2.1s-2.2-3.1-2.2-5.3
				c0-2.2,0.7-4,2.1-5.5c1.5-1.5,3.2-2.2,5.5-2.2C9.1,427.2,10.6,427.6,12.4,428.1z"/>
		</g>
		<g>
			<g>
				<g>
					<g>
						<defs>
							<path id="SVGID_1_" d="M-177.7,365.2c-0.1,0.5-0.1,1.1-0.2,1.6c-1.2,15.1,10.2,28.5,25.5,29.7c15.4,1.2,28.8-10.1,30-25.2
								c0-0.6,0.1-1.1,0.1-1.7c0-1.5-0.1-2.9-0.3-4.5h-55.1V365.2z"/>
						</defs>
						<clipPath id="SVGID_2_">
							<use xlink:href="#SVGID_1_"  style="overflow:visible;"/>
						</clipPath>
						<g class="st4">
							
								<radialGradient id="SVGID_3_" cx="-1663.3533" cy="-180.077" r="1.7022" gradientTransform="matrix(103.6872 0 0 -102.3948 172238.4688 -18082.5371)" gradientUnits="userSpaceOnUse">
								<stop  offset="0" style="stop-color:#FCEE23"/>
								<stop  offset="1.000000e-002" style="stop-color:#FCEE23"/>
								<stop  offset="0.11" style="stop-color:#FCE923"/>
								<stop  offset="0.24" style="stop-color:#FBDB23"/>
								<stop  offset="0.37" style="stop-color:#F9C423"/>
								<stop  offset="0.51" style="stop-color:#F6A324"/>
								<stop  offset="0.65" style="stop-color:#F37924"/>
								<stop  offset="0.73" style="stop-color:#F16024"/>
								<stop  offset="1" style="stop-color:#F16024"/>
							</radialGradient>
							<rect x="-177.9" y="365.2" class="st5" width="55.7" height="32"/>
						</g>
					</g>
				</g>
			</g>
		</g>
		<g>
			<g>
				<g>
					<g>
						<defs>
							<path id="SVGID_4_" d="M-177.9,406.2v38.5c0,9.4,6.6,11.3,10.2,11.5h2.1v-50H-177.9z M-156.7,456.2h12.2v-50h-12.2V456.2z
								 M-134.4,406.2v50h2.1c3.3-0.2,9.6-1.8,10.2-10.3v-39.7H-134.4z"/>
						</defs>
						<clipPath id="SVGID_5_">
							<use xlink:href="#SVGID_4_"  style="overflow:visible;"/>
						</clipPath>
						<g class="st6">
							
								<radialGradient id="SVGID_6_" cx="-1660.9293" cy="-182.271" r="1.7112" gradientTransform="matrix(86.4697 0 0 -85.392 143416.6563 -15179.8174)" gradientUnits="userSpaceOnUse">
								<stop  offset="0" style="stop-color:#FCEE23"/>
								<stop  offset="1.000000e-002" style="stop-color:#FCEE23"/>
								<stop  offset="0.48" style="stop-color:#F69F24"/>
								<stop  offset="0.88" style="stop-color:#F16024"/>
								<stop  offset="1" style="stop-color:#F16024"/>
							</radialGradient>
							<rect x="-177.9" y="406.2" class="st7" width="55.7" height="50"/>
						</g>
					</g>
				</g>
			</g>
		</g>
		<path class="st0" d="M-115,338.2h-70c-9.5,0-17,7.5-17,16.8l0,0v72.2c0,8.7,5.4,16,14.2,17v-92.1h75.9v90.4
			c8.7-1,14.2-8.1,14.2-16.7v-70.5c0-9.3-7.6-16.8-17-16.8l0,0"/>
		<path class="st0" d="M-66.2,355.5c-0.9,0.4-1.3-1.9-1.4-2.5s-0.1-1.1-1-0.8c-0.8,0.2-0.3,1.1-0.1,1.6c0.1,0.6,0.3,1.3,0.4,2.1
			c0,0-0.1,0.6-0.7,0.7c-1.3,0.4-1.3-2.9-1.3-2.9s-0.2-0.6-0.7-0.6s-0.8,0.7-0.8,0.8c0.1,1.1,0.4,2.1,0.8,3.1
			c0.7,1.9,1.9,1.6,2.5,1.3c0.7-0.2,1-1.3,1.2-1.5c0.2-0.1,2,0.2,2.2-0.7c0.7-2.2-0.9-4.2-1.2-4.8c-0.3-0.6-1,0-1,0
			C-66.4,352.6-65.4,355.2-66.2,355.5 M-22,345.5c-1.8,0.8-2.9,2.4-2.9,4.2c0,1.8,2.3,2.8,2.3,2.8c-0.3,0.7-0.7,1.6-0.3,2.4
			c0.2,0.8,0.4,0.6,0.4,0.6c0.4-1.7,1.9-3,3.4-3.6c0.9-0.2,0.9-0.7,0.9-0.7s0.8-2.7,0.3-2.7c-0.9,0.2-1.6,0.6-2.3,1
			c-0.4,0.2-1.9,0.6-2.2,0.1c-0.8-1.2,0.9-1.2,1.1-1.2s0.8,0,2.1-0.8c0.4-0.4,0.3-0.7,0.1-1.2C-19.6,345.6-20.9,345.1-22,345.5
			 M-27.1,346c2.1-1.6,4.3-3,6.5-4.4c0.9-0.5,1.2-1.5,1.1-2.3c-3.1,1.2-5.7,2.9-8.1,5.1C-28.5,345.1-27.3,346-27.1,346 M-79.6,355.9
			c4.1-1.7,7.5-4.5,9.9-8.1l1,0.7c0,0,1.2-0.6,1-3.6l-0.7-1c0,0,0.9-2.4-0.4-3.6c-1.2-1.2-3.1,0.5-3.5,1.2c-0.4,0.6-1.6,3,1.3,5.5
			c0,0-2.5,4.7-10.6,8.6c-0.1,0.1-0.2,0.2-0.3,0.4C-82.2,356.4-81.5,356.6-79.6,355.9 M-71,342.2c0.8-0.7,2,1,0.3,1.8
			C-71,344.1-71.6,342.9-71,342.2 M-17.1,365.1l4.5-4.8c0,0,0.3,13,0,16.1s1.8-1.3,2.1-5c0.2-3.6,0-13.7,0-13.7s11.4-12,12.9-18.1
			c0.3-1.5-0.7-1.1-1-0.6s-9.1,12.8-12.2,15.1l-0.9-6.3c0,0,0.2-0.8,0.8-0.5c0.5,0.3,0.7,0.6,1,0.5s0.1-0.6,0.1-0.6l-2.9-7.5
			c0,0-0.2-0.6-0.7-0.1c-0.4,1-1,1.8-1.3,2.9c0,0,2.1,8.7,1.8,14.1l-5.9,6.2l-13.3-13.7c0,0-0.4-0.8,0.3-1c0.9-0.1,0.9-0.6,0.2-1
			s-6.7-4.6-6.7-4.6l0.3,4.2l17.1,18.7c-1.9,1.6-3,3.9-3.1,6.3c0.1,3.9,1.3,4.2,3,4.2c1.6,0.1,5.1-1.1,5.3-5.6
			C-15.5,366.8-17.2,365.1-17.1,365.1 M-19.5,371.4c-1.6,0.2-2.2-0.1-2.2-0.8c0-0.7,1-3,2.7-3.6c0,0,1.4,1.3,1.4,2.1
			C-17.6,370.2-18.4,371.2-19.5,371.4 M-28.5,370.3c-0.1-4.7-5.1-5.2-5.1-5.2c0.4-0.4,1.6-2.4,1.9-5.7c0.2-3.8-1.6-6.8-2.1-6.8
			s-2.3,5.6-2.7,8.1c-0.3,2.4-1.4,2.9-1.4,2.9c-1,1-3,1.7-8.7,2.5s-9.2-2.1-10.3-4.8c-1.1-2.8-3-21-3.2-22c-0.1-1.1-0.7-0.7-0.9-0.2
			c-0.3,2.8-0.7,5.7-0.3,8.5c0.1,3.4,1.2,7.5,1.4,10.3c0.3,4.2-2.9,6.7-4.2,6.8c-1.3,0.2-1.4,0.8-1.4,0.8s-0.9,3.3-0.7,3.5
			c0.2,0.2,4.4,0.1,4.9,0.1s1.9,0.1,1.3,1c-0.2,0.5-3,4-9.1,5.2c-2,0.5-4.1,0.5-6,0c-1.4-0.5-2.7-1.3-3.5-2.7
			c-2.9-4.7,0.7-9.8,0.3-10.3c-0.9-1.3-3.5,4.2-3.5,7c0,4,3,7.4,4.4,8.1c3.8,1.8,8.4,1.8,12-0.1c6.5-3,8.4-8,8-9.4
			c-0.2-1.1-1.1-1.8-2.2-2.1c-0.4-0.1-0.4-0.6-0.3-1c0.2-0.4,0.7-0.6,1.3,0c1,0.8,3.2,4.7,9.5,5.1c3,0,5.9-0.5,8.7-1.3
			c0.4-0.1,2.7-1.6,3-0.1c0.3,2.1,1,5.6,5.3,6.3C-31.5,374.9-28.3,375.3-28.5,370.3 M-34.2,358.8c0.3-0.1,1.1,1,0.7,2.2
			c-0.4,1.2-0.9,1.9-1.8,1.3C-35.9,361.7-34.8,359-34.2,358.8 M-33.5,370.8c-0.7-0.4-1.6-1.3-1.1-2.1c0.2-0.4,3.1,0,3.5,1.6
			C-31,371.2-32.9,371-33.5,370.8 M-53.4,375.4c0.9-0.5,1.2-1.5,1.1-2.4c-3,1.2-5.7,2.9-8.1,5.1c-0.9,0.8,0.2,1.7,0.4,1.7
			C-57.8,378.2-55.6,376.7-53.4,375.4"/>
		<path class="st0" d="M-55.7,381.8h4.5v32.7h-4.1l-22.2-25.2v25.2h-4.4v-32.7h3.8l22.3,25.4C-55.7,407.2-55.7,381.8-55.7,381.8z"/>
		<path class="st0" d="M-32.9,414.5H-44v-32.7h8.7c2.2-0.1,4.3,0.2,6.4,1.1c1.4,0.6,2.7,1.7,3.5,3c0.9,1.3,1.2,2.9,1.2,4.4
			c0,3.3-1.8,5.6-5.1,6.9c2.2,0.4,4.2,1.5,5.7,3c1.3,1.5,2.2,3.4,2.1,5.5c0,1.6-0.3,3.1-1.3,4.5c-1,1.3-2.3,2.5-3.8,3.3
			C-28.5,414.2-30.6,414.5-32.9,414.5z M-35.2,385.9h-4.1v9.8h3.2c2.5,0,4.3-0.5,5.4-1.5s1.6-2.3,1.6-3.8
			C-29.2,387.5-31.2,385.9-35.2,385.9z M-34.8,400h-4.4v10.4h4.6c1.8,0.1,3.5-0.1,5.3-0.6c0.9-0.4,1.8-1.1,2.2-1.8
			c0.4-0.8,0.9-1.7,0.9-2.7s-0.2-1.9-0.9-2.8c-0.7-0.8-1.4-1.5-2.5-1.8C-31.4,400.1-33.2,399.9-34.8,400L-34.8,400z"/>
		<path class="st0" d="M-16.7,381.8H2.1v4.1h-14V396H1.7v4.2h-13.5v10.2H2.7v4.1h-19.2L-16.7,381.8z"/>
		<path class="st8" d="M-71.1,436.7h-7.8c0,1,0.3,1.8,1.1,2.5c0.8,0.6,1.6,1,2.5,1c1.4,0,3-0.5,4.1-1.3v2.2c-0.7,0.5-1.3,0.7-2.1,1
			c-0.8,0.1-1.6,0.2-2.3,0.2c-1.1,0-2.1-0.2-3.1-0.7c-0.8-0.5-1.3-1.2-1.9-2.1c-0.4-1-0.8-1.9-0.8-3c0-1.5,0.4-2.9,1.4-4.1
			c1-1.1,2.3-1.6,3.8-1.6c1.3,0,2.7,0.5,3.5,1.6c1,1.2,1.3,2.7,1.3,4.1L-71.1,436.7z M-78.9,435.4h5.6c0-0.7-0.2-1.5-0.8-2.1
			c-0.4-0.5-1.2-0.7-2-0.7s-1.4,0.2-2,0.7C-78.4,433.9-78.8,434.6-78.9,435.4z"/>
		<path class="st8" d="M-70,435.5h6.2v2.3H-70V435.5z"/>
		<path class="st8" d="M-62,425.2h2.2v6.5c0.9-0.6,2-1,3.1-1c1.3,0,2.5,0.6,3.4,1.6c1,1.2,1.4,2.5,1.3,4.1c0.1,1.6-0.4,3.1-1.6,4.2
			c-1.1,1.1-2.7,1.7-4.3,1.6c-0.8,0-1.6-0.1-2.3-0.2s-1.3-0.2-2-0.6L-62,425.2z M-59.8,433.9v6.1c0.8,0.2,1.6,0.4,2.3,0.4
			c0.9,0,1.9-0.4,2.4-1c0.7-0.7,1-1.7,1-2.7s-0.2-1.9-0.9-2.7c-0.7-0.6-1.3-1-2.3-1C-58.1,432.9-59,433.3-59.8,433.9z"/>
		<path class="st8" d="M-47.8,431v2.5l0.1-0.2c1.1-1.7,2.2-2.5,3.2-2.5c1,0.1,2,0.5,2.5,1.2l-1.2,1.9c-0.4-0.6-1.3-1-2.1-1.1
			c-0.8,0-1.4,0.4-1.9,1c-0.4,0.7-0.9,1.6-0.8,2.4v5.8h-2.2v-11C-50,431-47.8,431-47.8,431z"/>
		<path class="st8" d="M-33.7,435.4v4.7c0,0.4,0.1,0.6,0.3,0.6c0.4-0.1,0.9-0.2,1.2-0.6v1.3c-0.3,0.2-0.8,0.5-1.2,0.6
			c-0.2,0.1-0.7,0.1-1,0.1c-1,0-1.4-0.4-1.8-1.1c-0.9,0.7-2,1.1-3.1,1.1c-0.8,0-1.4-0.2-2-0.7c-0.4-0.5-0.9-1.2-0.8-1.9
			c0-0.7,0.2-1.3,0.8-1.8c0.7-0.6,1.3-1.1,2.2-1.3l2.9-1v-0.6c0.1-1-0.4-1.8-1.4-2.1c-0.1,0-0.3,0-0.4,0c-1.3,0.1-2.7,0.7-3.5,1.8
			v-2.4c1-1.1,2.3-1.6,3.6-1.5c1.1,0,2.1,0.2,3,1c0.2,0.2,0.4,0.5,0.7,0.8c0.2,0.4,0.3,0.6,0.3,1C-33.7,434.2-33.7,434.8-33.7,435.4
			z M-35.9,439.8v-3.3l-1.4,0.6c-0.7,0.2-1.1,0.5-1.6,0.8c-0.7,0.6-0.7,1.6,0,2.3c0.3,0.2,0.8,0.5,1.1,0.5
			C-37.2,440.7-36.5,440.5-35.9,439.8L-35.9,439.8z"/>
		<path class="st8" d="M-28.5,431v1.5c0.9-1,2.1-1.6,3.4-1.6c0.8,0,1.3,0.1,2,0.5s1.1,0.8,1.3,1.5c0.3,1,0.4,1.9,0.4,3v6.3h-2.2
			v-6.3c0.1-0.8-0.1-1.7-0.4-2.4c-0.3-0.5-1.1-0.8-1.8-0.7c-1.1,0-2.1,0.6-2.7,1.6v7.9h-2.2v-11.1h2.2V431z"/>
		<path class="st8" d="M-10.5,439.5v2.2c-1.1,0.4-2.2,0.6-3.3,0.6c-3,0.2-5.5-1.9-5.7-5c0-0.2,0-0.5,0-0.7c-0.1-1.6,0.4-3,1.4-4.2
			c1.1-1.1,2.5-1.7,4.1-1.6c0.4,0,1.1,0,1.6,0.1c0.7,0.1,1.1,0.4,1.8,0.6v2.3c-0.9-0.6-2-1-3.1-1.1c-1,0-1.9,0.4-2.4,1
			c-0.7,0.7-1,1.7-1,2.7s0.3,1.9,1,2.7c0.8,0.7,1.9,1.1,2.9,1C-12.5,440.1-11.5,439.8-10.5,439.5z"/>
		<path class="st8" d="M-8.8,425.2h2.2v7.1c0.9-1.1,2.1-1.7,3.4-1.7c0.8,0,1.4,0.1,2.1,0.6c0.7,0.4,1.1,0.8,1.3,1.6
			c0.3,1,0.4,1.9,0.3,2.9v6.3h-2.2v-6.9c0-0.7-0.1-1.5-0.7-2.1c-0.3-0.5-1-0.7-1.6-0.7c-0.4,0-1,0.1-1.3,0.4c-0.4,0.4-1,0.7-1.4,1.2
			v7.9h-2.2L-8.8,425.2L-8.8,425.2z"/>
		<g>
			<g>
				<g>
					<g>
						<defs>
							<path id="SVGID_7_" d="M-177.7,365.2c-0.1,0.5-0.1,1.1-0.2,1.6c-1.2,15.1,10.2,28.5,25.5,29.7c15.4,1.2,28.8-10.1,30-25.2
								c0-0.6,0.1-1.1,0.1-1.7c0-1.5-0.1-2.9-0.3-4.5h-55.1V365.2z"/>
						</defs>
						<clipPath id="SVGID_8_">
							<use xlink:href="#SVGID_7_"  style="overflow:visible;"/>
						</clipPath>
						<g class="st9">
							
								<radialGradient id="SVGID_9_" cx="-1663.3533" cy="-180.077" r="1.7022" gradientTransform="matrix(103.6872 0 0 -102.3948 172238.4688 -18082.5371)" gradientUnits="userSpaceOnUse">
								<stop  offset="0" style="stop-color:#FCEE23"/>
								<stop  offset="1.000000e-002" style="stop-color:#FCEE23"/>
								<stop  offset="0.11" style="stop-color:#FCE923"/>
								<stop  offset="0.24" style="stop-color:#FBDB23"/>
								<stop  offset="0.37" style="stop-color:#F9C423"/>
								<stop  offset="0.51" style="stop-color:#F6A324"/>
								<stop  offset="0.65" style="stop-color:#F37924"/>
								<stop  offset="0.73" style="stop-color:#F16024"/>
								<stop  offset="1" style="stop-color:#F16024"/>
							</radialGradient>
							<rect x="-177.9" y="365.2" class="st10" width="55.7" height="32"/>
						</g>
					</g>
				</g>
			</g>
		</g>
		<g>
			<g>
				<g>
					<g>
						<defs>
							<path id="SVGID_10_" d="M-177.9,406.2v38.5c0,9.4,6.6,11.3,10.2,11.5h2.1v-50H-177.9z M-156.7,456.2h12.2v-50h-12.2V456.2z
								 M-134.4,406.2v50h2.1c3.3-0.2,9.6-1.8,10.2-10.3v-39.7H-134.4z"/>
						</defs>
						<clipPath id="SVGID_11_">
							<use xlink:href="#SVGID_10_"  style="overflow:visible;"/>
						</clipPath>
						<g class="st11">
							
								<radialGradient id="SVGID_12_" cx="-1660.9293" cy="-182.271" r="1.7112" gradientTransform="matrix(86.4697 0 0 -85.392 143416.6563 -15179.8174)" gradientUnits="userSpaceOnUse">
								<stop  offset="0" style="stop-color:#FCEE23"/>
								<stop  offset="1.000000e-002" style="stop-color:#FCEE23"/>
								<stop  offset="0.48" style="stop-color:#F69F24"/>
								<stop  offset="0.88" style="stop-color:#F16024"/>
								<stop  offset="1" style="stop-color:#F16024"/>
							</radialGradient>
							<rect x="-177.9" y="406.2" class="st12" width="55.7" height="50"/>
						</g>
					</g>
				</g>
			</g>
		</g>
		<path class="st0" d="M-115,338.2h-70c-9.5,0-17,7.5-17,16.8l0,0v72.2c0,8.7,5.4,16,14.2,17v-92.1h75.9v90.4
			c8.7-1,14.2-8.1,14.2-16.7v-70.5c0-9.3-7.6-16.8-17-16.8l0,0"/>
	</g>
</g>
</svg>
