<?xml version="1.0" encoding="utf-8"?>
<!-- Generator: Adobe Illustrator 19.1.0, SVG Export Plug-In . SVG Version: 6.00 Build 0)  -->
<svg version="1.1" id="Layer_1" xmlns="http://www.w3.org/2000/svg" xmlns:xlink="http://www.w3.org/1999/xlink" x="0px" y="0px"
	 width="51px" height="51px" viewBox="-104.5 255 51 51" style="enable-background:new -104.5 255 51 51;" xml:space="preserve">
<style type="text/css">
	.st0{fill:#026744;}
</style>
<g id="Layer_2_3_">
	<g>
		<g id="Layer_1-2_2_">
			<path class="st0" d="M-78.9,304.6h-23c-1.9,0-2.2-0.4-1.9-2.2c0.4-3,0.8-5.8,1.4-8.8c0.4-1.9,1.4-3.5,3.2-4.3
				c3.2-1.7,6.4-3.5,9.7-5c0.7-0.2,1.4,0.2,2,0.6c4.8,3.7,10.6,4.3,15.4,1.2c0.7-0.4,1.4-0.8,2-1.4s1.4-0.6,2-0.2
				c2.9,1.4,5.8,3,8.7,4.5c2.2,1.2,3.7,3.2,4,5.8c0.3,2.5,0.7,5,1.2,7.7c0.3,1.7-0.2,2.2-1.9,2.2h-22.8V304.6z"/>
			<path class="st0" d="M-68.8,274.4c-0.3,0.7-3.3,8.2-9.7,8.4c-5.5,0.2-9.2-5.2-10.6-8.9c-0.4-1.2-1.6-4.8,0.2-9.1
				c1.4-3.7,5.4-8.7,10.7-8.4c6.2,0.3,9.2,7.4,9.5,7.9C-67,269.1-68.4,273.3-68.8,274.4z"/>
		</g>
	</g>
</g>
</svg>
