<svg xmlns="http://www.w3.org/2000/svg" viewBox="0 0 58.04 44.26"><title>Asset 12</title><g id="Layer_2" data-name="Layer 2"><g id="Layer_1-2" data-name="Layer 1"><path d="M0,44.26V0H58V44.25H0ZM52.5,5.57h-47V38.71H31.35V43.5l.38-.1c2.25-.65,4.5-1.3,6.75-1.93a1.39,1.39,0,0,1,.73,0c2.21.61,4.42,1.24,6.62,1.86l.39.1V38.7H52.5Z" style="fill:#006643"/><path d="M45.16,42.06l-1.79-.5c-1.4-.39-2.81-.8-4.22-1.18a1.3,1.3,0,0,0-.62,0L32.78,42l-.4.1v-.46c0-3.91,0-7.81,0-11.72,0-.32-.06-.52-.4-.54-.79,0-1.11-.47-1.25-1.23-.18-.94-.48-1.87-.75-2.8a3.39,3.39,0,0,0-.27-.66c-.58-1-1.15-2-1.75-3.05A.57.57,0,0,1,28,21c.58-1,1.14-2,1.69-2.95a4.61,4.61,0,0,0,.36-.86c.31-1.12.62-2.24.91-3.36a.48.48,0,0,1,.4-.39c.65-.16,1.29-.39,2-.51A14.08,14.08,0,0,0,38,10.74a1.31,1.31,0,0,1,1.67,0,17.92,17.92,0,0,0,6.63,2.67.53.53,0,0,1,.46.46c.29,1.11.59,2.22.91,3.32A3.72,3.72,0,0,0,48,18c.57,1,1.15,2,1.74,3.05a.45.45,0,0,1,0,.53c-.25.4-.45.83-.71,1.22a13.4,13.4,0,0,0-2,4.75,12.45,12.45,0,0,1-.36,1.33.64.64,0,0,1-.32.31,5.56,5.56,0,0,1-.91.25c-.29.05-.38.17-.38.48,0,1.58,0,3.16,0,4.75l0,6.93ZM38.83,12.69l-.31.17a15.46,15.46,0,0,1-3.94,1.86c-.45.08-.88.27-1.33.35a.76.76,0,0,0-.69.69A14.4,14.4,0,0,1,30.37,21a.57.57,0,0,0,0,.68,13.64,13.64,0,0,1,2,4.36c0,.26.17.51.2.77,0,.53.34.74.84.84a13.8,13.8,0,0,1,4.95,2.05.85.85,0,0,0,1,0,12.63,12.63,0,0,1,3.79-1.77c.49-.09,1-.26,1.47-.38a.53.53,0,0,0,.44-.43,14.21,14.21,0,0,1,1.73-4.58,2.55,2.55,0,0,0,.63-1.2c0-.41-.39-.82-.61-1.24a10.86,10.86,0,0,1-1.23-2.6c-.14-.64-.36-1.26-.5-1.89a.58.58,0,0,0-.5-.52,15.36,15.36,0,0,1-5.48-2.27l-.16-.09Z" style="fill:#006643"/><path d="M26,11.43v2H9.25v-2Z" style="fill:#006643"/><path d="M26,28v2H9.26V28Z" style="fill:#006643"/><path d="M26,17v2H9.25V17Z" style="fill:#006643"/><path d="M9.25,24.52v-2H26v2Z" style="fill:#006643"/></g></g></svg>