<?xml version="1.0" encoding="utf-8"?>
<!-- Generator: Adobe Illustrator 19.1.0, SVG Export Plug-In . SVG Version: 6.00 Build 0)  -->
<svg version="1.1" id="Layer_1" xmlns="http://www.w3.org/2000/svg" xmlns:xlink="http://www.w3.org/1999/xlink" x="0px" y="0px"
	 width="25.5px" height="32px" viewBox="-292 381 25.5 32" style="enable-background:new -292 381 25.5 32;" xml:space="preserve">
<style type="text/css">
	.st0{clip-path:url(#SVGID_2_);}
	.st1{fill:#006643;}
	.st2{fill:#FFA100;}
	.st3{fill:#FFFFFF;}
</style>
<g>
	<defs>
		<rect id="SVGID_1_" x="-292" y="381" width="25.5" height="32"/>
	</defs>
	<clipPath id="SVGID_2_">
		<use xlink:href="#SVGID_1_"  style="overflow:visible;"/>
	</clipPath>
	<g id="Web_1920_2" class="st0">
		<g id="atmgold" transform="translate(0 3)">
			<g id="Layer_1_1_" transform="translate(0 0)">
				<path id="Path_1" class="st1" d="M-266.5,385.3v-0.2c0-2-1.5-3.8-3.5-4c0,0-0.1,0-0.1,0c-0.2,0-0.5-0.1-0.7-0.1h-16.8
					c-0.2,0-0.5,0-0.7,0.1c0,0-0.1,0-0.1,0c-2,0.3-3.6,2-3.6,4v17.6c0,2.1,1.5,3.8,3.6,4h0.1c0.2,0,0.5,0.1,0.7,0.1h16.8
					c0.2,0,0.5,0,0.7-0.1h0.1c2-0.3,3.5-2,3.5-4v-17.3C-266.5,385.3-266.5,385.3-266.5,385.3z M-291.3,402.6L-291.3,402.6
					c0-0.1,0-0.1,0-0.2c0,0,0-0.1,0-0.1v-17.1c0,0,0-0.1,0-0.1c0,0,0-0.1,0-0.1c0.1-2,1.7-3.5,3.7-3.5h16.8c2,0,3.6,1.5,3.7,3.5
					v17.5c-0.1,2-1.7,3.5-3.7,3.5h-16.8C-289.6,406.1-291.2,404.6-291.3,402.6L-291.3,402.6z"/>
				<path id="Path_2" class="st2" d="M-274,404.3h-10.1c-0.6,0-1-0.5-1-1c0,0,0,0,0,0v-19.2c0-0.6,0.5-1,1-1c0,0,0,0,0,0h10.1
					c0.6,0,1,0.5,1,1c0,0,0,0,0,0v19.2C-273,403.9-273.4,404.3-274,404.3C-274,404.3-274,404.3-274,404.3z"/>
				<path id="Path_3" class="st3" d="M-279,401.6c0.6,0,1,0.5,1,1c0,0.6-0.5,1-1,1c-0.6,0-1-0.5-1-1c0-0.3,0.1-0.5,0.3-0.7
					C-279.5,401.7-279.3,401.6-279,401.6z"/>
				<path id="Path_4" class="st1" d="M-279,401.9c0.4,0,0.7,0.3,0.7,0.6c0,0.4-0.3,0.7-0.6,0.7c-0.4,0-0.7-0.3-0.7-0.6c0,0,0,0,0,0
					C-279.6,402.2-279.4,401.9-279,401.9z"/>
				<path id="Path_5" class="st3" d="M-280,384.1h1.9c0.1,0,0.2-0.1,0.2-0.2c0,0,0,0,0,0l0,0c0-0.1-0.1-0.2-0.2-0.2c0,0,0,0,0,0
					h-1.9c-0.1,0-0.2,0.1-0.2,0.2c0,0,0,0,0,0l0,0C-280.2,384-280.1,384.1-280,384.1C-280,384.1-280,384.1-280,384.1z"/>
				<rect id="Rectangle_1" x="-284" y="384.7" class="st3" width="9.9" height="16"/>
				<rect id="Rectangle_2" x="-284" y="384.7" class="st1" width="10" height="0.6"/>
				<path id="Path_6" class="st2" d="M-279,388.1c2.2,0,4,1.8,4,4c0,2.2-1.8,4-4,4s-4-1.8-4-4C-283,389.9-281.2,388.1-279,388.1
					C-279,388.1-279,388.1-279,388.1z"/>
				<path id="Path_7" class="st3" d="M-278.9,389c1.7,0,3.1,1.4,3.1,3.1s-1.4,3.1-3.1,3.1s-3.1-1.4-3.1-3.1S-280.6,389-278.9,389
					L-278.9,389z"/>
			</g>
		</g>
	</g>
</g>
</svg>
