<?xml version="1.0" encoding="utf-8"?>
<!-- Generator: Adobe Illustrator 19.1.0, SVG Export Plug-In . SVG Version: 6.00 Build 0)  -->
<svg version="1.1" id="Layer_1" xmlns="http://www.w3.org/2000/svg" xmlns:xlink="http://www.w3.org/1999/xlink" x="0px" y="0px"
	 width="141px" height="141px" viewBox="-235 326 141 141" style="enable-background:new -235 326 141 141;" xml:space="preserve">
<style type="text/css">
	.st0{fill:none;stroke:#006643;stroke-width:2.3056;stroke-miterlimit:10;}
	.st1{fill:#006643;}
	.st2{fill:#FFA100;}
</style>
<path class="st0" d="M-205.6,327.8h82.1c15.3,0,27.7,12.4,27.7,27.7v82.1c0,15.3-12.4,27.7-27.7,27.7h-82.1
	c-15.3,0-27.7-12.4-27.7-27.7v-82.1C-233.3,340.1-220.9,327.8-205.6,327.8z"/>
<g id="Layer_2">
	<g id="Layer_1-2">
		<path class="st1" d="M-217.1,424.2c3.5-4.1,7.8-4.4,12.8-3.3c8.1,1.8,16.2,3.1,24.4,4.5c2.1,0.1,3.8,1.5,4.5,3.3
			c0.3,0.8,0.7,1.6,1.2,2.3c1.2,2.1,3.9,3,6.1,1.9c5-1.5,9.9-3.3,14.8-5.4l-7.6,1.3c-1.9,0.3-3.8,0.7-5.7,1
			c-3.1,0.7-6.2-1.2-6.9-4.2c0-0.1-0.1-0.3-0.1-0.4c0-0.8,0.3-1.6,1-2.1c8.1-7.2,18.1-12,29-13.9c1.2-0.3,2.5-0.3,3.7,0
			c9.2,2.7,18.4,5.5,27.9,8.4l-6.9,15c-0.5,0-0.7,0.2-0.8,0c-5.8-2.2-12.3-1.7-17.6,1.5c-8.4,4.5-17.2,8.3-25.9,12.3
			c-0.2,0-0.4,0.3-0.6,0.5h-2.4c-8.2-3.4-16.4-6.6-24.5-10.1c-8.8-3.7-17.5-7.8-26.3-11.7L-217.1,424.2L-217.1,424.2z"/>
		<path class="st2" d="M-210.8,396.4l19.3-32.1l57,31.6c-1.8,3.1-3.6,6-5.4,9c-0.3,0.4-0.8,0.7-1.4,0.8
			c-10.4,1.2-20.2,5.2-28.3,11.6c-0.8,0.5-1.8,0.6-2.7,0.3C-185.1,410.7-197.6,403.6-210.8,396.4z"/>
		<path class="st2" d="M-194.1,352.8l-17.9,29.6l-3.9-2l20.6-34.3l53.7,29.7l-2.7,4.5L-194.1,352.8z"/>
		<path class="st2" d="M-139.8,385l-2.7,4.4l-49.9-27.6l-17.9,29.7l-3.8-2.1l20.6-34.3L-139.8,385z"/>
	</g>
</g>
</svg>
