<?xml version="1.0" encoding="utf-8"?>
<!-- Generator: Adobe Illustrator 19.1.0, SVG Export Plug-In . SVG Version: 6.00 Build 0)  -->
<svg version="1.1" id="Layer_1" xmlns="http://www.w3.org/2000/svg" xmlns:xlink="http://www.w3.org/1999/xlink" x="0px" y="0px"
	 width="51px" height="51px" viewBox="-148 78 51 51" style="enable-background:new -148 78 51 51;" xml:space="preserve">
<style type="text/css">
	.st0{fill:#FFFFFF;}
	.st1{fill:#006643;}
</style>
<g>
	<g id="Layer_1-2">
		<path class="st0" d="M-122.6,112.5h-18c-1.5,0-1.7-0.3-1.5-1.5c0.4-2.1,0.7-4.2,1.1-6.3c0.3-1.3,1.2-2.5,2.5-3.1
			c2.5-1.3,5-2.5,7.6-3.6c0.6-0.1,1.2,0.1,1.6,0.4c3.7,2.7,8.3,3.1,12.2,0.9c0.6-0.3,1.1-0.7,1.6-1.1c0.4-0.4,1.1-0.5,1.6-0.1
			c2.3,1.1,4.6,2.1,6.9,3.3c1.8,0.8,2.9,2.3,3.1,4.1c0.2,1.8,0.6,3.6,1,5.4c0.2,1.2-0.2,1.6-1.5,1.6
			C-104.4,112.5-122.6,112.5-122.6,112.5z"/>
		<path class="st0" d="M-114.4,91.2c-0.2,0.5-2.7,5.8-7.9,5.9c-4.5,0.1-7.5-3.7-8.6-6.3c-0.3-0.8-1.3-3.4,0.1-6.4
			c1.1-2.6,4.3-6.1,8.7-5.9c5.1,0.2,7.5,5.2,7.7,5.6C-112.8,87.5-114,90.4-114.4,91.2z"/>
	</g>
</g>
<g>
	<path class="st1" d="M-103.1,128.5h-39.9c-0.5,0-0.9-0.4-0.9-0.9v-0.2c0-0.5,0.4-0.9,0.9-0.9h39.9c0.5,0,0.9,0.4,0.9,0.9v0.2
		C-102.2,128.1-102.6,128.5-103.1,128.5z"/>
	<path class="st1" d="M-104,125.5h-38c-1.1,0-2.1-0.8-2.2-1.8l-1.9-18.1c-0.1-1.1,0.9-2.1,2.2-2.1h42.6c1.3,0,2.3,1,2.2,2.2
		l-2.8,18.1C-102,124.8-102.9,125.5-104,125.5z"/>
</g>
</svg>
