<svg xmlns="http://www.w3.org/2000/svg" viewBox="0 0 43.95 43.98"><title>Asset 13</title><g id="Layer_2" data-name="Layer 2"><g id="Layer_1-2" data-name="Layer 1"><path d="M44,18.79V31.31c-.45,0-.9.12-1.36.12q-20.6,0-41.2,0c-.44,0-.88,0-1.38-.06C0,27,0,22.8.06,18.59c0-.54.72-1.08,1.13-1.6s.81-.7.93-1.13C3.44,11.3,4.74,6.73,6,2.14A2.87,2.87,0,0,1,7.63,0H36.19a3.06,3.06,0,0,1,2.06,2.49c1.18,4.54,2.47,9,3.74,13.56a3.3,3.3,0,0,0,.59,1C43,17.64,43.49,18.21,44,18.79ZM35.39,3.32H8.9L5.33,15.73H38.79C37.64,11.54,36.51,7.43,35.39,3.32ZM9.38,23.6a3.13,3.13,0,0,0-6.25-.05,3.18,3.18,0,0,0,3.17,3.2A3.19,3.19,0,0,0,9.38,23.6Zm28.18-3.1a3.1,3.1,0,0,0-3.12,3.08,3.13,3.13,0,1,0,6.25,0A3.11,3.11,0,0,0,37.56,20.5Z" style="fill:#006643"/><path d="M44,42.33A2,2,0,0,1,41.56,44c-1.62-.07-3.25,0-4.88,0s-2.24-.49-2.24-2.23c0-1.28,0-2.57,0-3.94h-25c0,1.42,0,2.79,0,4.16s-.45,2-1.91,2c-1.92,0-3.84,0-5.76,0C.83,44,.07,43.61.05,42.63,0,40,0,37.31,0,34.57H44Z" style="fill:#006643"/></g></g></svg>