<svg id="Layer_1" data-name="Layer 1" xmlns="http://www.w3.org/2000/svg" viewBox="0 0 200 200"><defs><style>.cls-1{fill:#00633b;}</style></defs><path class="cls-1" d="M101.18,81.55h7.2v18.61h-7.2Z"/><path class="cls-1" d="M89,89.05h7.2v11.11H89Z"/><path class="cls-1" d="M115.89,64.14h5.25V49.74H106.43l-.6,5.25h6.61l-.46.3L94,70.75l-7.81-9.61L58.71,84l3.16,4L85.58,68.5l7.8,9.6,22.51-19.36Z"/><path class="cls-1" d="M114.24,74.65h7.2v25.51h-7.2Z"/><path class="cls-1" d="M63.22,93.11h7.2v7h-7.2Z"/><path class="cls-1" d="M76,86.05h7.2v14H76Z"/><path class="cls-1" d="M155.2,151.33a49.19,49.19,0,0,0,12.91-33.16A48.62,48.62,0,0,0,154,84c-3.75,31.36-30.76,55.52-63.32,55.37H75.07a49,49,0,0,0,44.27,27.92l53.27-.15Z"/><path class="cls-1" d="M131.49,37.13a55.28,55.28,0,0,0-82.68,73.08l.45.6L26.45,131.22l66,.15A55.27,55.27,0,0,0,147.7,76.15a54.71,54.71,0,0,0-16.21-39Zm-39,87.34-47.12-.15,14.25-12.91-2.55-2.7A48.12,48.12,0,0,1,92.48,28.13a47.73,47.73,0,0,1,34.06,14.11,48.28,48.28,0,0,1-34.06,82.23Z"/></svg>