<?xml version="1.0" encoding="utf-8"?>
<!-- Generator: Adobe Illustrator 19.1.0, SVG Export Plug-In . SVG Version: 6.00 Build 0)  -->
<svg version="1.1" id="Layer_1" xmlns="http://www.w3.org/2000/svg" xmlns:xlink="http://www.w3.org/1999/xlink" x="0px" y="0px"
	 viewBox="-235 326 141 141" enable-background="new -235 326 141 141" xml:space="preserve">
<g id="Layer_2">
	<g id="Layer_1-2">
		<path fill="#006643" d="M-141.6,381v1.3c-0.3,2.6-0.7,5.3-1,7.9c-0.3,2.2-0.5,4.3-0.8,6.6h-14.8v41.8h-16.5v-41.8h-11.1V381h11.1
			c0-2.6,0-5,0-7.5c-0.3-8.4,5.5-16,13.8-17.6c1.7-0.4,3.3-0.7,5-1h14.3v15.8c-1.5,0-3-0.1-4.5-0.1c-2.7,0-5.4,0-8.1,0.1
			c-1.1,0-2.1,0.6-2.1,1.8c0,2.8,0,5.7,0,8.5H-141.6z"/>
		<path fill="none" stroke="#006643" stroke-width="2.3189" stroke-miterlimit="10" d="M-206,327.6h82.5c15.4,0,27.8,12.5,27.8,27.8
			V438c0,15.4-12.5,27.8-27.8,27.8H-206c-15.4,0-27.8-12.5-27.8-27.8v-82.5C-233.8,340-221.4,327.6-206,327.6z"/>
	</g>
</g>
</svg>
