<?xml version="1.0" encoding="utf-8"?>
<!-- Generator: Adobe Illustrator 19.1.0, SVG Export Plug-In . SVG Version: 6.00 Build 0)  -->
<svg version="1.1" id="Layer_1" xmlns="http://www.w3.org/2000/svg" xmlns:xlink="http://www.w3.org/1999/xlink" x="0px" y="0px"
	 width="91.1px" height="92px" viewBox="-259 351 91.1 92" style="enable-background:new -259 351 91.1 92;" xml:space="preserve">
<style type="text/css">
	.st0{fill:#006643;}
	.st1{fill:#026845;}
	.st2{fill:#FFA100;}
</style>
<g id="Layer_2">
	<g id="Layer_1-2">
		<path class="st0" d="M-168,366.2c0-0.1,0-0.2,0-0.4c0-0.1,0-0.2,0-0.3c-0.4-7.7-5.5-13.6-12.6-14.4c-0.1,0-0.2,0-0.3,0
			c-0.9-0.1-1.8-0.2-2.6-0.2h-59.8c-0.9,0-1.7,0.1-2.5,0.2c-0.1,0-0.2,0-0.3,0c-7.2,0.8-12.3,6.7-12.8,14.4c0,0.1,0,0.2,0,0.3
			s0,0.2,0,0.4s0,0.2,0,0.4v60.8c0,0.1,0,0.2,0,0.4c0,0.1,0,0.2,0,0.4s0,0.2,0,0.3c0.5,7.8,5.6,13.6,12.8,14.4h0.3
			c0.8,0.1,1.7,0.2,2.6,0.2h59.8c0.9,0,1.8-0.1,2.6-0.2h0.2h0.1c7.1-0.8,12.2-6.7,12.6-14.4c0-0.1,0-0.2,0-0.3v-0.4
			c0-0.1,0-0.2,0-0.4v-60.8C-167.9,366.5-168,366.4-168,366.2z M-256.6,428.2c0-0.1,0-0.2,0-0.3c0-0.1,0-0.2,0-0.3
			c0-0.1,0-0.3,0-0.4v-60.6c0-0.1,0-0.3,0-0.4s0-0.2,0-0.3c0-0.1,0-0.2,0-0.3c0.5-7,6.2-12.4,13.2-12.4h59.8c7,0,12.8,5.5,13.2,12.5
			c0,0.1,0,0.1,0,0.2s0,0.2,0,0.3c0,0.1,0,0.3,0,0.4v60.6c0,0.1,0,0.3,0,0.4s0,0.2,0,0.3c0,0.1,0,0.1,0,0.2
			c-0.4,7-6.2,12.5-13.2,12.5h-59.8C-250.4,440.6-256.1,435.2-256.6,428.2z"/>
	</g>
</g>
<g>
	<path class="st1" d="M-174.9,401.8l0.3,0.4c-1.9,3.5-3.9,7-5.8,10.4c-1.8,3.2-3.7,6.3-5.6,9.4l-0.8,0.6c-0.2,0.1-0.3,0-0.3,0
		c-3.9,0.6-7.8,1.3-11.7,1.8c-2.6,0-4.9,1.5-6.3,3.6c0,0.1-0.1,0.1-0.3,0.2l-6.1-3.7c2.4-3.3,4.8-6.4,7.2-9.6
		c0.3-0.4,0.8-0.7,1.3-0.9c4.1-2,8.6-2.6,13.2-2c0.3,0,0.7,0.2,0.9,0.5c0,0.1,0,0.1,0.1,0.2c0.5,1.3,0,2.6-1.2,3.1
		c-0.7,0.3-1.4,0.6-2.2,0.9l-2.9,1.4c2.2-0.5,4.2-1,6.3-1.6c1-0.1,1.7-1.1,1.5-2.1c-0.1-0.3-0.1-0.7-0.2-1.1c-0.3-0.8,0-1.7,0.7-2.2
		c2.5-2.4,4.7-4.8,7-7.4C-178.6,402-177.1,401.1-174.9,401.8L-174.9,401.8L-174.9,401.8z"/>
	<g id="Layer_2_2_">
		<g id="Layer_1-2_1_">
			<path class="st2" d="M-220.3,377.5v-3.2c0-0.7,0-1.3,0-2c0-0.2,0.1-0.4,0.3-0.6l9-6.2c0.2-0.2,0.6-0.3,0.9-0.1
				c0.1,0,0.1,0.1,0.1,0.1c1.4,1.2,2.7,2.3,4.1,3.5c0.2,0.2,0.3,0.5,0.3,0.7c0,3.5,0,6.9,0,10.3v0.5c0.2-0.1,0.2-0.1,0.3-0.2
				c1.1-0.6,2.2-1.2,3.3-1.7c0.2-0.1,0.6-0.1,0.8,0c1.2,0.5,2.3,1,3.5,1.5c0.3,0.1,0.6,0.4,0.6,0.7c0,5.8,0,11.6,0,17.4v0.5h3.5
				c0.3-0.1,0.7,0.1,0.7,0.4c0,0.1,0,0.1,0,0.1c0,0.4,0,0.9,0,1.3s-0.2,0.6-0.7,0.6h-39.8c-0.4,0-0.7-0.2-0.7-0.6s0-1,0.1-1.4
				c0-0.3,0.2-0.5,0.7-0.5h3.4v-0.4c0-6.1,0-12.3,0-18.5c0-0.3,0.2-0.7,0.6-0.9c1.6-1,3.3-1.9,4.9-2.8c0.2-0.1,0.6-0.1,0.8,0
				C-222.6,376.6-221.5,377-220.3,377.5z M-211.5,398.8h4.8c0-0.1,0-0.2,0-0.3c0-9.5,0-19,0-28.5c0-0.2-0.1-0.3-0.2-0.5
				c-1.1-1-2.2-1.9-3.3-2.8c-0.1-0.1-0.2-0.1-0.2-0.2c-0.7,0.2-1.1,0.7-1,1.4c0,10.2,0,20.3,0,30.5L-211.5,398.8L-211.5,398.8z
				 M-220.4,398.8c0-0.1,0-0.2,0-0.3c0-6.5,0-13.1,0-19.5c0-0.2-0.1-0.3-0.3-0.4c-0.9-0.3-1.7-0.7-2.6-1c-0.1,0-0.2-0.1-0.3-0.1
				v21.4h3.3L-220.4,398.8L-220.4,398.8z M-205.6,398.8c1.1,0,2,0,2.9,0c0.4,0,0.5-0.1,0.5-0.4c0-6,0-12,0-18V380
				c-0.2,0.1-0.3,0.1-0.4,0.2c-0.9,0.5-1.7,1-2.6,1.5c-0.2,0.1-0.4,0.3-0.4,0.6c0,5.4,0,10.8,0,16.3V398.8z M-232.9,400.2h38.7v-0.6
				h-38.7V400.2z"/>
		</g>
	</g>
</g>
<path class="st1" d="M-252.3,401.7L-252.3,401.7c2.2-0.6,3.7,0.2,5.1,1.8c2.3,2.6,4.5,4.9,7,7.4c0.7,0.6,1,1.4,0.7,2.2
	c-0.1,0.3-0.1,0.8-0.2,1.1c-0.1,1,0.5,2,1.5,2.1c2.1,0.6,4.1,1.2,6.3,1.6l-2.9-1.4c-0.7-0.3-1.5-0.6-2.2-0.9
	c-1.2-0.5-1.8-1.9-1.2-3.1c0,0,0.1-0.1,0.1-0.2c0.2-0.3,0.5-0.5,0.9-0.5c4.5-0.6,9.1,0,13.2,2c0.5,0.2,0.9,0.5,1.3,0.9
	c2.4,3.2,4.7,6.3,7.2,9.6l-6.1,3.7c-0.1-0.1-0.3-0.1-0.3-0.2c-1.3-2.1-3.6-3.5-6.3-3.6c-3.9-0.4-7.8-1.1-11.7-1.8
	c-0.1,0-0.2,0-0.3,0l-0.8-0.6c-1.9-3.1-3.8-6.2-5.6-9.4c-1.9-3.4-3.9-6.9-5.8-10.4L-252.3,401.7L-252.3,401.7z"/>
</svg>
