<?xml version="1.0" encoding="utf-8"?>
<!-- Generator: Adobe Illustrator 19.1.0, SVG Export Plug-In . SVG Version: 6.00 Build 0)  -->
<svg version="1.1" id="Layer_1" xmlns="http://www.w3.org/2000/svg" xmlns:xlink="http://www.w3.org/1999/xlink" x="0px" y="0px"
	 width="91.1px" height="92px" viewBox="-259 351 91.1 92" style="enable-background:new -259 351 91.1 92;" xml:space="preserve">
<style type="text/css">
	.st0{fill:#006643;}
	.st1{fill:#026845;}
	.st2{fill:#FFA100;}
	.st3{fill:none;stroke:#FFFFFF;stroke-width:0.4683;stroke-miterlimit:10;}
	.st4{fill:none;stroke:#FFFFFF;stroke-width:0.4993;stroke-miterlimit:10;}
	.st5{fill:none;stroke:#FFFFFF;stroke-width:0.534;stroke-miterlimit:10;}
</style>
<g id="Layer_2">
	<g id="Layer_1-2">
		<path class="st0" d="M-168,366.2c0-0.1,0-0.2,0-0.4c0-0.1,0-0.2,0-0.3c-0.4-7.7-5.5-13.6-12.6-14.4c-0.1,0-0.2,0-0.3,0
			c-0.9-0.1-1.8-0.2-2.6-0.2h-59.8c-0.9,0-1.7,0.1-2.5,0.2c-0.1,0-0.2,0-0.3,0c-7.2,0.8-12.3,6.7-12.8,14.4c0,0.1,0,0.2,0,0.3
			s0,0.2,0,0.4s0,0.2,0,0.4v60.8c0,0.1,0,0.2,0,0.4c0,0.1,0,0.2,0,0.4s0,0.2,0,0.3c0.5,7.8,5.6,13.6,12.8,14.4h0.3
			c0.8,0.1,1.7,0.2,2.6,0.2h59.8c0.9,0,1.8-0.1,2.6-0.2h0.2h0.1c7.1-0.8,12.2-6.7,12.6-14.4c0-0.1,0-0.2,0-0.3v-0.4
			c0-0.1,0-0.2,0-0.4v-60.8C-167.9,366.5-168,366.4-168,366.2z M-256.6,428.2c0-0.1,0-0.2,0-0.3c0-0.1,0-0.2,0-0.3
			c0-0.1,0-0.3,0-0.4v-60.6c0-0.1,0-0.3,0-0.4s0-0.2,0-0.3c0-0.1,0-0.2,0-0.3c0.5-7,6.2-12.4,13.2-12.4h59.8c7,0,12.8,5.5,13.2,12.5
			c0,0.1,0,0.1,0,0.2s0,0.2,0,0.3c0,0.1,0,0.3,0,0.4v60.6c0,0.1,0,0.3,0,0.4s0,0.2,0,0.3c0,0.1,0,0.1,0,0.2
			c-0.4,7-6.2,12.5-13.2,12.5h-59.8C-250.4,440.6-256.1,435.2-256.6,428.2z"/>
	</g>
</g>
<g>
	<path class="st1" d="M-174.9,401.8l0.3,0.4c-1.9,3.5-3.9,7-5.8,10.4c-1.8,3.2-3.7,6.3-5.6,9.4l-0.8,0.6c-0.2,0.1-0.3,0-0.3,0
		c-3.9,0.6-7.8,1.3-11.7,1.8c-2.6,0-4.9,1.5-6.3,3.6c0,0.1-0.1,0.1-0.3,0.2l-6.1-3.7c2.4-3.3,4.8-6.4,7.2-9.6
		c0.3-0.4,0.8-0.7,1.3-0.9c4.1-2,8.6-2.6,13.2-2c0.3,0,0.7,0.2,0.9,0.5c0,0.1,0,0.1,0.1,0.2c0.5,1.3,0,2.6-1.2,3.1
		c-0.7,0.3-1.4,0.6-2.2,0.9l-2.9,1.4c2.2-0.5,4.2-1,6.3-1.6c1-0.1,1.7-1.1,1.5-2.1c-0.1-0.3-0.1-0.7-0.2-1.1c-0.3-0.8,0-1.7,0.7-2.2
		c2.5-2.4,4.7-4.8,7-7.4C-178.6,402-177.1,401.1-174.9,401.8L-174.9,401.8L-174.9,401.8z"/>
</g>
<path class="st1" d="M-252.3,401.7L-252.3,401.7c2.2-0.6,3.7,0.2,5.1,1.8c2.3,2.6,4.5,4.9,7,7.4c0.7,0.6,1,1.4,0.7,2.2
	c-0.1,0.3-0.1,0.8-0.2,1.1c-0.1,1,0.5,2,1.5,2.1c2.1,0.6,4.1,1.2,6.3,1.6l-2.9-1.4c-0.7-0.3-1.5-0.6-2.2-0.9
	c-1.2-0.5-1.8-1.9-1.2-3.1c0,0,0.1-0.1,0.1-0.2c0.2-0.3,0.5-0.5,0.9-0.5c4.5-0.6,9.1,0,13.2,2c0.5,0.2,0.9,0.5,1.3,0.9
	c2.4,3.2,4.7,6.3,7.2,9.6l-6.1,3.7c-0.1-0.1-0.3-0.1-0.3-0.2c-1.3-2.1-3.6-3.5-6.3-3.6c-3.9-0.4-7.8-1.1-11.7-1.8
	c-0.1,0-0.2,0-0.3,0l-0.8-0.6c-1.9-3.1-3.8-6.2-5.6-9.4c-1.9-3.4-3.9-6.9-5.8-10.4L-252.3,401.7L-252.3,401.7z"/>
<g>
	<path class="st2" d="M-237.7,380.9c10.5-3.4,15.5,0.5,22,11.4c-2,0.2-10.8,2.4-16.3-4.7C-236.5,381.7-237.7,380.9-237.7,380.9z"/>
	<path class="st2" d="M-212.4,391.7c0,0,8-14,23.2-11.1c0,0-7.4,11-14.8,10.5C-211.3,390.5-212.4,391.7-212.4,391.7z"/>
	<path class="st0" d="M-213,411.1c1.5-4.2,1.4-7.2,1-9.2c-0.3-1.5-0.9-3.1-1.2-6c-0.2-1.8-0.2-3.2-0.2-4.2c-0.2,0-0.4,0-0.5,0
		c-0.3,1.2-0.5,2.9-0.2,4.9c0.3,2,1,3.2,1.3,4.1c0.7,1.9,1,5-1.4,10.2C-213.9,411-213.4,411.1-213,411.1z"/>
	<path class="st2" d="M-213,365.3c-10.9,12.6-6.7,16.4-1.7,24.4c0,0.1,0.1,0.3,0.1,0.5c0.3,0,0.6-0.1,0.9-0.1c0-0.1,0-0.1,0-0.2l0,0
		c0.5-0.7,1.5-2.3,3.7-5.4C-205.5,377.8-209.7,372.9-213,365.3z"/>
	<path class="st3" d="M-212.4,391.7c3.5-4,6.5-5.1,8.7-5.4c1.3-0.2,2.8-0.1,4.8-0.8c2.2-0.7,3.8-1.9,4.8-2.8"/>
	<path class="st4" d="M-215.6,392.3c-4.8-1-7.2-2.9-8.5-4.4c-0.6-0.6-1.2-1.5-2.5-2.3c-1.9-1.2-4.1-1.3-5.5-1.2"/>
	<path class="st5" d="M-214.2,390.1c-1.1-5-0.5-9.2,2.2-13.8c0.6-1,0-2.6-0.5-3.4"/>
</g>
</svg>
