<?xml version="1.0" encoding="utf-8"?>
<!-- Generator: Adobe Illustrator 19.1.0, SVG Export Plug-In . SVG Version: 6.00 Build 0)  -->
<svg version="1.1" id="Layer_1" xmlns="http://www.w3.org/2000/svg" xmlns:xlink="http://www.w3.org/1999/xlink" x="0px" y="0px"
	 width="208px" height="118px" viewBox="10.6 44.5 208 118" style="enable-background:new 10.6 44.5 208 118;" xml:space="preserve"
	>
<style type="text/css">
	.st0{fill:#00643E;}
	.st1{fill:#F99B1F;}
	.st2{clip-path:url(#SVGID_2_);fill:url(#SVGID_3_);}
	.st3{clip-path:url(#SVGID_5_);fill:url(#SVGID_6_);}
</style>
<g>
	<g>
		<path class="st0" d="M149,63.1c-0.9,0.4-1.4-1.9-1.5-2.5c-0.1-0.6-0.2-1.1-0.9-0.9c-0.8,0.2-0.3,1.1-0.2,1.6c0.2,0.5,0.4,2,0.4,2
			s-0.1,0.6-0.6,0.7c-1.4,0.3-1.3-2.9-1.3-2.9s-0.2-0.5-0.6-0.6c-0.4,0-0.8,0.7-0.8,0.8c0,0.1,0.2,1.2,0.8,3.1
			c0.6,1.9,2,1.6,2.6,1.4c0.7-0.2,1-1.3,1.2-1.4c0.3-0.1,2,0.2,2.3-0.7c0.6-2.2-0.8-4.2-1.2-4.8c-0.4-0.6-0.9,0-0.9,0
			C148.8,60.1,149.9,62.7,149,63.1 M193.9,53c-1.4,0.5-2.9,2.4-2.9,4.3c-0.1,1.9,2.5,2.8,2.5,2.8s-0.7,1.2-0.4,2.5
			c0.2,0.9,0.4,0.6,0.4,0.6c0.9-2.5,2.7-3.4,3.5-3.7c0.8-0.3,0.9-0.7,0.9-0.7s0.7-2.7,0.3-2.7c-0.4,0-1.8,0.7-2.4,1
			c-0.5,0.3-1.8,0.6-2.2,0.1c-0.7-1.2,0.8-1.2,1.1-1.2s0.8,0,2.1-0.9c0.5-0.4,0.4-0.8,0.1-1.2C196.7,53.6,195.4,52.5,193.9,53
			 M188.7,53.5c0.2,0,3.5-2.7,6.6-4.4c0.6-0.3,1.2-1.2,1.1-2.4c0-0.1-4.1,1.5-8.1,5.1C187.3,52.7,188.5,53.5,188.7,53.5 M135.4,63.4
			c5.4-2.3,8.9-6.3,10.1-8.1l0.9,0.8c0,0,1.2-0.6,1-3.6l-0.7-0.9c0,0,0.8-2.5-0.5-3.7c-1.3-1.3-3.2,0.5-3.6,1.2
			c-0.5,0.7-1.6,3,1.3,5.5c0,0-2.6,4.7-10.7,8.6c0,0-0.2,0.1-0.3,0.4C132.9,63.9,133.6,64.2,135.4,63.4 M144.3,49.8
			c0.7-0.7,2,1,0.3,1.8C144.3,51.7,143.5,50.5,144.3,49.8 M198.9,72.6l4.5-4.8c0,0,0.4,13,0,16.1c-0.4,3.1,1.8-1.3,2.1-4.9
			s0.1-13.6,0.1-13.6s11.6-11.9,13-18c0.3-1.5-0.6-1.1-1-0.6c-0.3,0.5-9.2,12.9-12.3,15.2l-0.8-6.3c0,0,0.3-0.8,0.7-0.5
			c0.5,0.4,0.6,0.6,0.9,0.5c0.3-0.2,0.2-0.6,0.2-0.6l-2.9-7.5c0,0-0.3-0.6-0.6-0.2c-0.3,0.4-1.3,2.9-1.3,2.9s2.2,8.7,1.6,14
			l-6.1,6.2l-13.5-13.9c0,0-0.5-0.9,0.3-0.9c0.8-0.1,0.9-0.6,0.3-1c-0.6-0.5-6.9-4.6-6.9-4.6l0.3,4.3L195.1,73c0,0-3.2,2.5-3.1,6.3
			c0.1,3.8,1.3,4.2,3,4.3c1.6,0.1,5.1-1.1,5.3-5.6C200.5,74.3,198.9,72.6,198.9,72.6 M196.5,79c-1.6,0.2-2.3-0.2-2.3-0.8
			s0.9-3.1,2.8-3.7c0,0,1.5,1.3,1.4,2C198.5,77.1,198.1,78.8,196.5,79 M187.3,77.9c-0.1-4.7-5.1-5.2-5.1-5.2
			c0.5-0.4,1.5-2.4,1.8-5.7c0.3-3.7-1.6-6.8-2.2-6.8c-0.5-0.1-2.3,5.6-2.8,8.1c-0.4,2.5-1.4,2.8-1.4,2.8c-1,0.9-3,1.7-8.9,2.6
			c-5.9,0.9-9.3-2.1-10.5-4.9c-1.1-2.8-3-20.9-3.2-22c-0.2-1-0.6-0.7-0.9-0.2c-0.2,0.5-0.6,5.2-0.4,8.5c0.1,3.4,1.2,7.5,1.4,10.3
			c0.3,4.2-2.9,6.6-4.2,6.8c-1.3,0.2-1.4,0.9-1.4,0.9s-0.6,3.1-0.4,3.3c0.2,0.2,4.4,0.1,4.9,0.2c0.5,0.1,1.8,0.2,1.4,1
			c-0.2,0.5-3,4-9.2,5.2c-2,0.4-4.3,0.5-6.1,0.1c-2-0.6-3.3-1.8-3.8-2.7c-2.9-4.8,0.7-9.8,0.4-10.3c-0.9-1.4-3.7,4.2-3.6,7
			c0.1,4,3,7.4,4.5,8.1c6,2.7,10.7,0.6,12.2-0.1c6.7-3,8.4-8,8.1-9.5s-1.7-1.9-2.3-2c-0.5-0.1-0.5-0.6-0.3-1c0.2-0.4,0.6-0.6,1.3,0
			c1,0.9,3.2,4.7,9.6,5.1c3.6,0.2,8.3-1.2,8.7-1.4c0.5-0.2,2.7-1.5,3-0.1c0.4,2,0.9,5.6,5.3,6.3C184.2,82.5,187.4,82.8,187.3,77.9
			 M181.6,66.3c0.4-0.1,1.1,1,0.6,2.2c-0.5,1.2-0.9,1.9-1.7,1.3C179.7,69.2,180.8,66.6,181.6,66.3 M182.2,78.3
			c-0.6-0.4-1.6-1.3-1.1-2c0.3-0.4,3.2,0,3.6,1.6C184.8,78.8,182.8,78.6,182.2,78.3 M162.2,82.9c0.7-0.3,1.2-1.2,1.1-2.4
			c0-0.1-4.1,1.5-8.1,5.1c-0.9,0.8,0.3,1.7,0.5,1.6C155.7,87.3,159,84.6,162.2,82.9"/>
	</g>
	<g>
		<path class="st0" d="M159.4,89.3h4.5v32.8h-4.1l-22.5-25.2v25.2h-4.5V89.3h3.9l22.6,25.4V89.3H159.4z"/>
		<path class="st0" d="M182.6,122.1h-11.4V89.3h8.8c2.8,0,4.9,0.4,6.5,1.1s2.8,1.7,3.6,3c0.8,1.3,1.2,2.7,1.2,4.4
			c0,3.2-1.7,5.5-5.1,6.9c2.5,0.5,4.4,1.4,5.9,2.9c1.4,1.5,2.2,3.3,2.2,5.4c0,1.7-0.4,3.2-1.3,4.5c-0.9,1.3-2.2,2.4-3.9,3.2
			C187.3,121.7,185.1,122.1,182.6,122.1z M180.2,93.5h-4.1v9.8h3.2c2.6,0,4.4-0.5,5.4-1.4c1-0.9,1.6-2.2,1.6-3.7
			C186.3,95.1,184.3,93.5,180.2,93.5z M180.5,107.6H176V118h4.7c2.7,0,4.4-0.2,5.3-0.6s1.6-1,2.3-1.9c0.6-0.8,0.8-1.7,0.8-2.7
			c0-1-0.3-1.9-0.9-2.7c-0.6-0.8-1.4-1.4-2.6-1.8C184.7,107.8,182.9,107.6,180.5,107.6z"/>
		<path class="st0" d="M199,89.3h19v4.2h-14.2v10h13.8v4.1h-13.8v10.2h14.7v4.2H199V89.3z"/>
	</g>
	<g>
		<g>
			<path class="st1" d="M151.7,127.3h3.2v22.8h-3.4v-17.7l-7.2,8.8h-0.6l-7.3-8.8v17.7H133v-22.8h3.2l7.8,9.4L151.7,127.3z"/>
			<path class="st1" d="M165.8,135c2.4,0,4.3,0.7,5.9,2.2s2.4,3.3,2.4,5.6c0,2.2-0.8,4-2.4,5.4c-1.5,1.4-3.6,2.1-6,2.1
				c-2.4,0-4.2-0.7-5.8-2.2s-2.4-3.3-2.4-5.4c0-2.2,0.8-4,2.4-5.5C161.5,135.7,163.4,135,165.8,135z M165.6,137.7
				c-1.4,0-2.7,0.5-3.6,1.4c-0.9,0.9-1.4,2.1-1.4,3.6c0,1.4,0.5,2.6,1.4,3.5c0.9,0.9,2.2,1.4,3.7,1.4s2.8-0.5,3.7-1.4
				s1.4-2.1,1.4-3.5s-0.5-2.6-1.5-3.5C168.4,138.2,167.1,137.7,165.6,137.7z"/>
			<path class="st1" d="M176.2,127.3h3.1v8.9c1.3-0.9,2.8-1.4,4.2-1.4c2,0,3.6,0.7,4.8,2.2c1.2,1.4,1.8,3.3,1.8,5.5
				c0,2.4-0.7,4.3-2.3,5.8c-1.4,1.4-3.5,2.1-6,2.1c-1,0-2.1-0.1-3.2-0.3c-1.1-0.2-2-0.5-2.7-0.8v-22H176.2z M179.2,139v8.1
				c1,0.3,2.1,0.5,3.2,0.5c1.3,0,2.5-0.5,3.3-1.4c0.8-0.9,1.2-2.1,1.2-3.6c0-1.5-0.4-2.7-1.2-3.6c-0.8-0.9-1.8-1.4-3.1-1.4
				C181.6,137.5,180.4,138,179.2,139z"/>
			<path class="st1" d="M194,128.7c0.5,0,0.9,0.2,1.3,0.5c0.3,0.3,0.5,0.8,0.5,1.2c0,0.5-0.2,0.9-0.5,1.2c-0.3,0.3-0.8,0.5-1.3,0.5
				s-0.9-0.2-1.2-0.5c-0.3-0.3-0.5-0.8-0.5-1.2c0-0.5,0.2-0.9,0.5-1.2S193.5,128.7,194,128.7z M192.5,135.1h3.1v15h-3.1V135.1z"/>
			<path class="st1" d="M199,127.3h3.1v22.8H199V127.3z"/>
			<path class="st1" d="M218.6,142.8h-10.9c0.1,1.4,0.6,2.6,1.4,3.4c0.8,0.8,2.1,1.3,3.5,1.3c2.1,0,3.9-0.6,5.5-1.8v2.9
				c-0.9,0.6-1.8,1-2.8,1.3c-0.9,0.3-2,0.4-3.3,0.4c-1.7,0-3.1-0.3-4.1-1s-1.8-1.6-2.6-2.8c-0.7-1.2-0.9-2.5-0.9-4
				c0-2.3,0.6-4.1,2-5.6c1.3-1.4,3.1-2.1,5.1-2.1c2.1,0,3.7,0.7,4.9,2.1c1.2,1.4,1.8,3.3,1.8,5.6v0.3H218.6z M207.8,141h7.8
				c-0.1-1.2-0.4-2.1-1.1-2.7c-0.6-0.6-1.5-1-2.6-1c-1.1,0-2,0.3-2.7,1C208.5,138.9,208,139.9,207.8,141z"/>
		</g>
	</g>
	<g>
		<g>
			<defs>
				<path id="SVGID_1_" d="M35.8,73c-0.2,1.4-0.4,2.9-0.4,4.4c0,15.2,12.6,27.6,28.4,27.6c15.6,0,28.3-12.3,28.3-27.5
					c0-1.5-0.1-3-0.4-4.4H35.8V73z"/>
			</defs>
			<clipPath id="SVGID_2_">
				<use xlink:href="#SVGID_1_"  style="overflow:visible;"/>
			</clipPath>
			
				<radialGradient id="SVGID_3_" cx="-1055.8047" cy="-335.5258" r="1.8186" gradientTransform="matrix(98.66 0 0 96.1954 104147.4453 32340.7188)" gradientUnits="userSpaceOnUse">
				<stop  offset="0" style="stop-color:#FCEE23"/>
				<stop  offset="5.493160e-003" style="stop-color:#FCEE23"/>
				<stop  offset="9.369151e-002" style="stop-color:#FBE824"/>
				<stop  offset="0.1966" style="stop-color:#FADE25"/>
				<stop  offset="0.307" style="stop-color:#F8CE26"/>
				<stop  offset="0.4226" style="stop-color:#F6B727"/>
				<stop  offset="0.5422" style="stop-color:#F49A27"/>
				<stop  offset="0.6636" style="stop-color:#F27725"/>
				<stop  offset="0.7253" style="stop-color:#F16024"/>
				<stop  offset="1" style="stop-color:#F16024"/>
			</radialGradient>
			<rect x="35.4" y="73" class="st2" width="56.6" height="32.1"/>
		</g>
	</g>
	<g>
		<g>
			<defs>
				<path id="SVGID_4_" d="M35.6,114.2v38.4c0,9.4,7,11.2,10.7,11.4h2.2v-49.8H35.6z M57.3,163.9h12.8v-49.8H57.3V163.9z
					 M79.1,114.2v49.8h2.2c3.5-0.2,10.1-1.8,10.6-10.2v-39.6H79.1z"/>
			</defs>
			<clipPath id="SVGID_5_">
				<use xlink:href="#SVGID_4_"  style="overflow:visible;"/>
			</clipPath>
			
				<radialGradient id="SVGID_6_" cx="-1054.1088" cy="-335.4007" r="1.8192" gradientTransform="matrix(82.2817 0 0 80.2262 86740.2969 27001.1895)" gradientUnits="userSpaceOnUse">
				<stop  offset="0" style="stop-color:#FCEE23"/>
				<stop  offset="5.493160e-003" style="stop-color:#FCEE23"/>
				<stop  offset="0.5855" style="stop-color:#F38E26"/>
				<stop  offset="0.8791" style="stop-color:#F16024"/>
				<stop  offset="1" style="stop-color:#F16024"/>
			</radialGradient>
			<rect x="35.6" y="114.2" class="st3" width="56.2" height="49.8"/>
		</g>
	</g>
	<path class="st0" d="M99.5,46H27.9c-9.6,0-17.3,7.5-17.3,16.8v70.8c0,8.6,5.3,15.8,14,16.7V59.8h78.2v90.6
		c8.5-1,13.9-8.1,13.9-16.7V62.8C116.8,53.5,109.1,46,99.5,46"/>
</g>
</svg>
