<?xml version="1.0" encoding="utf-8"?>
<!-- Generator: Adobe Illustrator 19.1.0, SVG Export Plug-In . SVG Version: 6.00 Build 0)  -->
<svg version="1.1" id="Layer_1" xmlns="http://www.w3.org/2000/svg" xmlns:xlink="http://www.w3.org/1999/xlink" x="0px" y="0px"
	 viewBox="53 -53 141 141" style="enable-background:new 53 -53 141 141;" xml:space="preserve">
<style type="text/css">
	.st0{fill:none;stroke:#006643;stroke-width:2.3057;stroke-miterlimit:10;}
	.st1{fill:#006643;}
</style>
<g id="Layer_2">
	<g id="Layer_1-2">
		<path class="st0" d="M82.5-51.2h82.1c15.3,0,27.7,12.4,27.7,27.7v82.1c0,15.3-12.4,27.7-27.7,27.7H82.5
			c-15.3,0-27.7-12.4-27.7-27.7v-82.1C54.8-38.8,67.2-51.2,82.5-51.2z"/>
		<path class="st1" d="M123,64.1c-6.5,0-13,0.1-19.5,0C88,63.9,76.3,52.4,76.1,37c-0.2-13.3-0.2-26.6,0-39.9
			c0.2-14.7,11.9-26.5,26.7-26.8c13.8-0.2,27.6-0.3,41.4,0c14.9,0.3,26.4,12,26.7,26.9c0.2,13.3,0.2,26.6,0,39.9
			c-0.3,15.5-12,26.8-27.5,27C136.6,64.2,129.8,64.1,123,64.1z M85,16.8C84.9,16.8,84.9,16.8,85,16.8c0,6.2-0.2,12.3,0,18.5
			c0.4,13,6.7,20,19.6,20.4c12.7,0.4,25.3,0.4,38,0c12-0.4,18.9-7,19.3-18.6c0.5-13.1,0.5-26.3,0-39.5c-0.4-11.5-6.7-18.1-18-18.8
			c-13.8-0.8-27.7-1-41.4,0.1C90.7-20.2,85.5-14.5,85-2.7C84.7,3.8,85,10.3,85,16.8z"/>
		<path class="st1" d="M123.1,41.2C109.8,41.2,99,30.4,99,17.1c0.1-13.4,10.8-24.2,24.1-24.2c13.6,0,24.4,10.9,24.4,24.5
			C147.6,30.5,136.6,41.3,123.1,41.2z M123.1,1.3c-8.5,0.1-15.4,7.1-15.5,15.7c0,8.8,7.1,16,15.8,15.8c8.6-0.1,15.5-7.2,15.5-15.7
			C139,8.4,131.8,1.3,123.1,1.3z"/>
		<path class="st1" d="M154.3-8.1c-0.1,3.6-2.2,5.7-5.6,5.7c-3.4,0-5.6-2-5.8-5.6c-0.2-3.4,2.6-6.2,5.9-6
			C152.2-13.6,154.1-11.7,154.3-8.1z"/>
	</g>
</g>
</svg>
