<?xml version="1.0" encoding="utf-8"?>
<!-- Generator: Adobe Illustrator 19.1.0, SVG Export Plug-In . SVG Version: 6.00 Build 0)  -->
<svg version="1.1" id="Layer_1" xmlns="http://www.w3.org/2000/svg" xmlns:xlink="http://www.w3.org/1999/xlink" x="0px" y="0px"
	 width="91.1px" height="92px" viewBox="-259 351 91.1 92" style="enable-background:new -259 351 91.1 92;" xml:space="preserve">
<style type="text/css">
	.st0{fill:#006643;}
	.st1{fill:#FFA100;}
	.st2{fill:#FFFFFF;}
</style>
<g id="Layer_2">
	<g id="Layer_1-2">
		<path class="st0" d="M-168,366.2v-0.4c0-0.1,0-0.2,0-0.3c-0.4-7.7-5.5-13.6-12.6-14.4c-0.1,0-0.2,0-0.3,0
			c-0.9-0.1-1.7-0.2-2.6-0.2h-59.8c-0.9,0-1.7,0.1-2.5,0.2c-0.1,0-0.2,0-0.3,0c-7.2,0.8-12.3,6.7-12.8,14.4c0,0.1,0,0.2,0,0.3
			s0,0.2,0,0.4s0,0.2,0,0.4v60.8c0,0.1,0,0.2,0,0.4c0,0.1,0,0.2,0,0.4s0,0.2,0,0.3c0.5,7.8,5.6,13.6,12.8,14.4h0.3
			c0.8,0.1,1.7,0.2,2.6,0.2h59.8c0.9,0,1.8-0.1,2.6-0.2h0.2h0.1c7.1-0.8,12.2-6.7,12.6-14.4c0-0.1,0-0.2,0-0.3s0-0.2,0-0.4
			s0-0.2,0-0.4v-60.8C-167.9,366.5-167.9,366.4-168,366.2z M-256.6,428.2c0-0.1,0-0.2,0-0.3c0-0.1,0-0.2,0-0.3v-61.4
			c0-0.1,0-0.2,0-0.3c0-0.1,0-0.2,0-0.3c0.5-7,6.3-12.4,13.3-12.4h59.8c7,0,12.8,5.5,13.2,12.5v0.2c0,0.1,0,0.2,0,0.3
			c0,0.1,0,0.3,0,0.4v60.6c0,0.1,0,0.3,0,0.4c0,0.1,0,0.2,0,0.3v0.2c-0.4,7-6.2,12.5-13.2,12.5h-59.8
			C-250.4,440.6-256.1,435.2-256.6,428.2L-256.6,428.2z"/>
		<polygon class="st1" points="-193.2,427.9 -202.7,421 -208.1,399.2 -200.8,397.4 		"/>
		<polygon class="st1" points="-202.7,421 -207.8,431.5 -215.4,401 -208.1,399.2 		"/>
		<polygon class="st1" points="-217.4,431.8 -222.1,421 -215.9,399.5 -208.7,401.6 		"/>
		<polygon class="st1" points="-222.1,421 -231.8,427.6 -223.1,397.4 -215.9,399.5 		"/>
		<path class="st1" d="M-213,405c-1-0.1-1.9-0.5-2.5-1.3c-0.4-0.4-0.9-0.7-1.4-0.9c-0.1,0-0.2,0-0.3,0c-0.4,0-0.9,0.1-1.3,0.3
			c-0.5,0.2-1.1,0.3-1.7,0.4c-0.3,0-0.7-0.1-1-0.2c-0.8-0.4-1.5-1.1-1.8-2c-0.2-0.5-0.5-0.9-0.9-1.2c-0.4-0.2-0.9-0.4-1.4-0.4
			c-0.9,0-1.7-0.4-2.4-0.9c-0.6-0.7-1-1.7-0.9-2.7c0-0.6-0.1-1.1-0.4-1.6c-0.3-0.4-0.7-0.7-1.2-0.9c-0.8-0.4-1.5-1-1.9-1.8
			c-0.3-0.9-0.2-1.8,0.1-2.6c0.2-0.5,0.2-1,0.2-1.5c-0.1-0.4-0.3-0.9-0.6-1.2c-0.6-0.6-0.9-1.4-0.9-2.3c0.1-0.9,0.4-1.7,1-2.4
			c0.3-0.4,0.5-0.8,0.7-1.2c0.1-0.5,0-0.9-0.1-1.4c-0.3-0.8-0.3-1.7,0-2.5c0.4-0.8,1.1-1.4,1.9-1.8c0.5-0.2,0.9-0.5,1.2-0.9
			c0.2-0.5,0.4-0.9,0.4-1.5c0-0.9,0.3-1.8,0.9-2.5c0.7-0.6,1.6-0.9,2.6-0.9c0.5,0,1.1-0.1,1.5-0.4c0.4-0.3,0.7-0.8,0.9-1.3
			c0.4-0.9,1-1.6,1.9-2c0.3-0.1,0.7-0.2,1-0.2c0.5,0,1,0.1,1.5,0.3c0.4,0.1,0.8,0.2,1.1,0.2c0.1,0,0.2,0,0.3,0
			c0.5-0.1,0.9-0.4,1.3-0.7c0.6-0.6,1.5-0.9,2.3-1c0.8,0.1,1.6,0.4,2.3,0.9c0.4,0.3,0.8,0.5,1.2,0.6c0.1,0,0.2,0,0.3,0
			c0.4,0,0.7-0.1,1.1-0.2c0.5-0.1,1-0.2,1.4-0.2c0.4,0,0.8,0.1,1.1,0.2c0.8,0.4,1.4,1,1.8,1.8c0.2,0.4,0.5,0.8,0.9,1.1
			c0.5,0.2,1,0.3,1.5,0.4c0.9,0,1.8,0.3,2.5,1c0.6,0.7,0.9,1.6,0.9,2.5c0,0.5,0.1,1,0.4,1.5c0.4,0.4,0.8,0.7,1.3,0.9
			c0.9,0.4,1.7,1,2.1,1.9c0.3,0.8,0.3,1.6,0,2.4c-0.1,0.4-0.2,0.9-0.1,1.4c0.2,0.5,0.4,0.9,0.7,1.3c0.6,0.7,1,1.5,1,2.4
			c-0.1,0.9-0.5,1.8-1.2,2.5c-0.4,0.4-0.7,0.8-0.9,1.4c0,0.6,0.1,1.1,0.3,1.6c0.4,0.9,0.5,1.9,0.2,2.8c-0.4,0.8-1.1,1.4-1.9,1.8
			c-0.5,0.2-0.9,0.5-1.2,0.9c-0.2,0.4-0.4,0.9-0.4,1.4c0,0.9-0.4,1.8-0.9,2.4c-0.7,0.6-1.6,0.9-2.6,0.9c-0.5,0-1,0.1-1.5,0.4
			c-0.4,0.3-0.7,0.8-0.9,1.3c-0.3,0.9-1,1.6-1.9,2c-0.3,0.1-0.7,0.2-1,0.2l0,0c-0.5,0-1-0.1-1.5-0.3c-0.4-0.1-0.7-0.2-1.1-0.2
			c-0.1,0-0.2,0-0.3,0c-0.5,0.1-0.9,0.4-1.3,0.7C-211.3,404.5-212.1,404.9-213,405z"/>
		<path class="st2" d="M-213,364.8c1.4,0,2.1,1.3,3.4,1.6h0.4c0.9,0,1.7-0.4,2.6-0.4c0.3,0,0.6,0,0.9,0.2c1.3,0.5,1.4,2.2,2.6,2.9
			s2.8,0.1,3.9,1.2c1.1,1.1,0.4,2.7,1.2,3.9c0.8,1.1,2.7,1.2,3.3,2.7c0.5,1.3-0.5,2.5-0.2,3.7c0.3,1.2,1.8,2.1,1.8,3.5
			c0,1.5-1.8,2.3-2,3.7c-0.2,1.4,1.1,2.8,0.5,4.3c-0.6,1.5-2.3,1.5-3,2.6s-0.3,2.8-1.3,3.8s-2.8,0.4-4,1.2s-1.3,2.6-2.7,3.2
			c-0.3,0.1-0.5,0.1-0.8,0.1c-0.9,0-1.8-0.5-2.6-0.5c-0.1,0-0.3,0-0.4,0c-1.3,0.2-2.1,1.7-3.4,1.7c-1.6,0-2.3-1.8-3.8-2.1
			c-0.1,0-0.3,0-0.4,0c-1,0-2,0.6-3,0.6c-0.3,0-0.5,0-0.8-0.1c-1.4-0.6-1.5-2.3-2.6-3.1s-2.7-0.3-3.7-1.3s-0.4-2.9-1.2-4.1
			c-0.8-1.3-2.5-1.3-3.1-2.6c-0.6-1.4,0.6-2.6,0.3-3.9c-0.2-1.3-1.6-2-1.6-3.4c0-1.4,1.4-2.2,1.7-3.4c0.3-1.3-0.7-2.5-0.1-3.7
			s2.3-1.5,3-2.6c0.7-1.1,0.2-2.7,1.2-3.8s2.8-0.4,4-1.2s1.3-2.6,2.7-3.2c0.2-0.1,0.5-0.1,0.8-0.1c0.9,0,1.8,0.5,2.6,0.5
			c0.1,0,0.3,0,0.4,0C-215.2,366.3-214.4,364.9-213,364.8 M-213,363.5c-1,0.1-2,0.5-2.7,1.1c-0.3,0.3-0.6,0.4-1,0.6h-0.2
			c-0.3,0-0.7-0.1-1-0.2c-0.5-0.2-1.1-0.3-1.7-0.3c-0.4,0-0.9,0.1-1.3,0.2c-1,0.5-1.7,1.3-2.1,2.3c-0.2,0.4-0.4,0.7-0.7,1
			c-0.4,0.2-0.8,0.3-1.2,0.3c-1.1,0-2.2,0.4-3,1.1c-0.7,0.8-1.1,1.8-1.1,2.9c0,0.4-0.1,0.8-0.3,1.1c-0.3,0.3-0.6,0.5-1,0.7
			c-1,0.4-1.7,1.2-2.2,2.1c-0.3,0.9-0.3,1.9-0.1,2.9c0.1,0.4,0.2,0.7,0.1,1.1c-0.1,0.4-0.3,0.7-0.6,1c-0.7,0.8-1.1,1.7-1.1,2.8
			c0.1,1,0.4,1.9,1.1,2.6c0.2,0.3,0.4,0.6,0.5,0.9c0,0.4-0.1,0.8-0.2,1.2c-0.4,1-0.4,2-0.1,3c0.5,1,1.2,1.7,2.2,2.2
			c0.4,0.2,0.7,0.4,1,0.7c0.2,0.4,0.3,0.8,0.2,1.3c0,1.1,0.4,2.2,1.1,3.1c0.8,0.7,1.7,1.1,2.8,1.1c0.4,0,0.8,0.1,1.1,0.3
			c0.3,0.3,0.5,0.6,0.7,1c0.4,1,1.2,1.8,2.2,2.3c0.4,0.2,0.9,0.3,1.3,0.3c0.7,0,1.3-0.2,1.9-0.4c0.3-0.1,0.7-0.2,1.1-0.3h0.1
			c0.4,0.2,0.8,0.4,1.1,0.7c0.8,0.8,1.9,1.4,3,1.4c1,0,2-0.4,2.7-1.1c0.3-0.3,0.6-0.5,1-0.6h0.2c0.3,0,0.7,0.1,1,0.2
			c0.5,0.2,1.1,0.3,1.7,0.3c0.4,0,0.9-0.1,1.3-0.2c0.9-0.5,1.7-1.3,2.1-2.2c0.2-0.4,0.4-0.7,0.7-1c0.4-0.2,0.8-0.3,1.2-0.3
			c2.1,0.1,4-1.5,4.1-3.6c0-0.1,0-0.3,0-0.4c0-0.4,0.1-0.8,0.3-1.1c0.3-0.3,0.6-0.5,0.9-0.7c1-0.4,1.7-1.2,2.2-2.1
			c0.4-1.1,0.3-2.3-0.2-3.3c-0.2-0.4-0.3-0.8-0.3-1.2c0.2-0.4,0.4-0.7,0.7-1c0.8-0.8,1.3-1.8,1.4-2.9c-0.1-1-0.5-2-1.2-2.8
			c-0.3-0.3-0.5-0.6-0.6-1c0-0.4,0-0.7,0.1-1.1c0.3-0.9,0.3-1.9,0-2.9c-0.5-1-1.3-1.9-2.4-2.3c-0.4-0.2-0.7-0.4-1-0.7
			c-0.2-0.4-0.3-0.8-0.3-1.2c0-1.1-0.4-2.1-1.1-2.9c-0.8-0.7-1.9-1.1-2.9-1.1c-0.4,0-0.8-0.1-1.2-0.3c-0.3-0.3-0.5-0.6-0.7-0.9
			c-0.4-0.9-1.2-1.6-2.1-2.1c-0.4-0.2-0.9-0.3-1.4-0.3c-0.5,0-1.1,0.1-1.6,0.3c-0.3,0.1-0.6,0.1-1,0.2h-0.2c-0.4-0.1-0.7-0.3-1-0.5
			C-211.1,363.9-212,363.5-213,363.5L-213,363.5z"/>
		<path class="st2" d="M-213,370.8c7.6,0,13.8,6.2,13.8,13.8s-6.2,13.8-13.8,13.8s-13.8-6.2-13.8-13.8l0,0
			C-226.8,376.9-220.6,370.8-213,370.8z"/>
		<path class="st0" d="M-213,373.1c6.3,0,11.4,5.1,11.4,11.4c0,6.3-5.1,11.4-11.4,11.4c-6.3,0-11.4-5.1-11.4-11.4
			C-224.4,378.3-219.3,373.1-213,373.1C-213,373.1-213,373.1-213,373.1z"/>
	</g>
</g>
</svg>
