<?xml version="1.0" encoding="utf-8"?>
<!-- Generator: Adobe Illustrator 19.1.0, SVG Export Plug-In . SVG Version: 6.00 Build 0)  -->
<svg version="1.1" id="Layer_1" xmlns="http://www.w3.org/2000/svg" xmlns:xlink="http://www.w3.org/1999/xlink" x="0px" y="0px"
	 width="141px" height="141px" viewBox="-235 326 141 141" style="enable-background:new -235 326 141 141;" xml:space="preserve">
<style type="text/css">
	.st0{fill:#FFA100;}
	.st1{fill:none;stroke:#006643;stroke-width:2.3056;stroke-miterlimit:10;}
	.st2{fill:#006643;}
	.st3{fill:#FFFFFF;}
</style>
<g id="Layer_2_2_">
	<g>
		<g id="Layer_1-2_1_">
			<path class="st0" d="M-163.4,447.5h-48.5c-4,0-4.6-0.9-4-4.6c0.9-6.4,1.8-12.2,3-18.6c0.9-4,3-7.3,6.7-9.1
				c6.7-3.7,13.4-7.3,20.4-10.7c1.5-0.3,3,0.3,4.2,1.2c10.1,7.9,22.3,9.1,32.6,2.4c1.5-0.9,3-1.8,4.2-3s3-1.2,4.2-0.3
				c6.1,3,12.2,6.4,18.3,9.4c4.6,2.4,7.9,6.7,8.5,12.2c0.6,5.2,1.5,10.7,2.4,16.2c0.6,3.7-0.3,4.6-4,4.6h-48.3v0.3H-163.4z"/>
			<path class="st0" d="M-141.9,383.7c-0.6,1.5-7,17.4-20.4,17.7c-11.6,0.3-19.5-11-22.3-18.9c-0.9-2.4-3.3-10.1,0.3-19.2
				c3-7.9,11.3-18.3,22.6-17.7c13.1,0.6,19.5,15.6,20.1,16.8C-138,372.4-141.1,381.3-141.9,383.7z"/>
		</g>
	</g>
</g>
<g id="Layer_2">
	<g id="Layer_1-2">
		<path class="st1" d="M-204.7,328h82.1c15.3,0,27.7,12.4,27.7,27.7v82.1c0,15.3-12.4,27.7-27.7,27.7h-82.1
			c-15.3,0-27.7-12.4-27.7-27.7v-82.1C-232.4,340.4-220,328-204.7,328z"/>
	</g>
</g>
<path class="st2" d="M-141.8,451.6l-1.1,1L-141.8,451.6z"/>
<g id="Layer_2_1_">
	<g id="Layer_1-2_2_">
		<path class="st2" d="M-112.3,417.1c-3.1-3.1-8.1-3.1-11.1,0c-2.6,2.5-3.1,6.6-1.2,9.7l-26.2,26.2c-0.2,0.2-0.2,0.5,0,0.7l1.9,2
			c0.2,0.2,0.5,0.2,0.7,0l1.4-1.4l5.4,5.3c0.2,0.2,0.5,0.2,0.7,0l1.7-1.7c0.2-0.2,0.2-0.5,0-0.7l-6.5-6.2c1.6,1.5,3.1,2.7,4.9,4
			l1.7-1.7c0.1-0.2,0.1-0.4,0-0.6l-3-3.1l1.7-1.7l4.6,4.6c0.2,0.2,0.5,0.2,0.7,0l1.7-1.6c0.2-0.2,0.2-0.5,0-0.7l-4.6-4.6l16.4-16.4
			c3.7,2.2,8.6,1.1,10.8-2.6C-109.3,423.7-109.8,419.7-112.3,417.1z"/>
		<circle class="st3" cx="-115.8" cy="421.2" r="2.3"/>
	</g>
</g>
</svg>
