<?xml version="1.0" encoding="utf-8"?>
<!-- Generator: Adobe Illustrator 19.1.0, SVG Export Plug-In . SVG Version: 6.00 Build 0)  -->
<svg version="1.1" id="Layer_1" xmlns="http://www.w3.org/2000/svg" xmlns:xlink="http://www.w3.org/1999/xlink" x="0px" y="0px"
	 width="141px" height="141px" viewBox="-321.6 326.5 141 141" style="enable-background:new -321.6 326.5 141 141;"
	 xml:space="preserve">
<style type="text/css">
	.st0{fill:#FFA100;}
	.st1{fill:#FFFFFF;}
	.st2{display:none;fill:#F4AE1C;}
	.st3{fill:#006643;}
	.st4{fill:none;stroke:#006643;stroke-width:2.3124;stroke-miterlimit:10;}
</style>
<g>
	<path class="st0" d="M-201.1,369.4L-201.1,369.4l-0.3-0.1l0,0h-0.2h-0.2h-0.2h-97.8c-0.6,0-1.1,0.2-1.6,0.3l-0.4,0.2
		c-0.2,0.2-0.5,0.3-0.6,0.5c-1,0.9-1.6,2.1-1.6,3.5v61.2c0,0.2,0,0.3,0,0.5l0,0c0.1,0.2,0.1,0.3,0.2,0.5l0,0c0,0.2,0.1,0.3,0.1,0.4
		l0,0c0,0.2,0.1,0.3,0.2,0.5l0,0c0.6,1.5,2.1,2.5,3.7,2.6h97.4c2.4-0.1,4.2-2.1,4.1-4.5v-61.2C-198.2,371.8-199.4,370.1-201.1,369.4
		z"/>
	<path class="st0" d="M-233.8,369.1h-3.7v-9.4c0-0.6-0.4-1-1-1h-25.3c-0.6,0-1,0.5-0.9,1v9.4h-3.7v-9.4c-0.1-2.7,2-5,4.7-5.1l0,0
		h25.3c2.7,0.1,4.8,2.4,4.8,5.1l0,0L-233.8,369.1L-233.8,369.1z"/>
	<path class="st1" d="M-301.7,435.2c0-0.2,0-0.4,0-0.6v-57.9c0-1.5,0.6-2.9,1.7-3.9c0.2-0.2,0.5-0.4,0.7-0.6l0.4-0.2
		c0.6-0.2,1.2-0.4,1.8-0.4h92h0.5h0.2h0.2h0.3l0.4,0.2l-0.6,1.4l-0.2-0.1l-0.5,0.1h-92.3c-0.4,0-0.8,0.1-1.2,0.2l-0.2,0.2
		c-0.2,0.1-0.3,0.2-0.5,0.4c-0.8,0.7-1.2,1.7-1.2,2.7v57.9c0,0.2,0,0.2,0,0.4L-301.7,435.2z"/>
</g>
<g id="Layer_2">
	<g id="Layer_1-2">
		<path class="st2" d="M-211,374c0-0.2,0-0.2,0-0.3s0-0.2,0-0.3c-0.3-6.7-4.8-11.6-11.2-12.4c-0.2,0-0.2,0-0.3,0
			c-0.8-0.2-1.5-0.2-2.3-0.2h-52.5c-0.8,0-1.5,0-2.2,0.2c-0.2,0-0.2,0-0.3,0c-6.4,0.6-10.8,5.7-11.2,12.4v0.2c0,0,0,0.2,0,0.3
			s0,0.2,0,0.3v52.1c0,0.2,0,0.2,0,0.3s0,0.2,0,0.3s0,0.2,0,0.2c0.5,6.7,5,11.6,11.2,12.4h0.3c0.8,0.2,1.5,0.2,2.3,0.2h52.5
			c0.8,0,1.5,0,2.3-0.2h0.2h0.2c6.2-0.6,10.7-5.7,11.2-12.4c0,0,0-0.2,0-0.3s0-0.2,0-0.3v-52.1C-210.9,374.2-210.9,374-211,374z
			 M-288.8,427.2V427c0-0.2,0-0.2,0-0.3s0-0.2,0-0.3v-52.1c0-0.2,0-0.2,0-0.3s0-0.2,0-0.3v-0.2c0.5-6,5.4-10.7,11.6-10.7h52.5
			c6.2,0,11.3,4.6,11.6,10.7v0.2c0,0.2,0,0.2,0,0.3s0,0.2,0,0.3v51.9c0,0.2,0,0.2,0,0.3s0,0.2,0,0.3v0.2c-0.3,6-5.4,10.7-11.6,10.7
			h-52.5C-283.4,437.7-288.5,433-288.8,427.2L-288.8,427.2z"/>
		<polygon class="st3" points="-283,410.7 -236.9,394.9 -217.2,408.3 -263.3,424.1 		"/>
		<polygon class="st1" points="-283,408.7 -236.9,392.9 -217.2,406.2 -263.3,422.2 		"/>
		<polygon class="st3" points="-283,407.2 -236.9,391.4 -217.2,404.7 -263.3,420.5 		"/>
		<polygon class="st1" points="-283,405.2 -236.9,389.3 -217.2,402.7 -263.3,418.5 		"/>
		<polygon class="st3" points="-283,403.6 -236.9,387.6 -217.2,401.1 -263.3,416.9 		"/>
		<polygon class="st1" points="-283,401.6 -236.9,385.8 -217.2,399.1 -263.3,414.9 		"/>
		<polygon class="st3" points="-283,400 -236.9,384.1 -217.2,397.6 -263.3,413.4 		"/>
		<polygon class="st1" points="-278.8,400.5 -237.2,386.2 -221.6,396.9 -263.1,411.2 		"/>
		<path class="st3" d="M-246.1,387.3l9-3.1l7.3,5C-234.6,390.7-242,390-246.1,387.3z"/>
		<path class="st3" d="M-226.4,400.7l9-3.1l-7.3-5C-229.6,394.3-230.4,397.9-226.4,400.7z"/>
		<path class="st3" d="M-274,396.9l-9,3.1l7.3,5C-270.7,403.1-269.9,399.6-274,396.9z"/>
		<path class="st3" d="M-254.3,410.3l-9,3.1l-7.3-5C-265.6,406.7-258.3,407.5-254.3,410.3z"/>
	</g>
</g>
<g id="Layer_2_1_">
	<g id="Layer_1-2_1_">
		<path class="st4" d="M-292.3,328h82.3c15.3,0,27.8,12.4,27.8,27.8v82.3c0,15.3-12.4,27.8-27.8,27.8h-82.3
			c-15.3,0-27.8-12.4-27.8-27.8v-82.3C-320.1,340.5-307.7,328-292.3,328z"/>
	</g>
</g>
</svg>
