<?xml version="1.0" encoding="utf-8"?>
<!-- Generator: Adobe Illustrator 19.1.0, SVG Export Plug-In . SVG Version: 6.00 Build 0)  -->
<svg version="1.1" id="Layer_1" xmlns="http://www.w3.org/2000/svg" xmlns:xlink="http://www.w3.org/1999/xlink" x="0px" y="0px"
	 viewBox="-235 326 141 141" style="enable-background:new -235 326 141 141;" xml:space="preserve">
<style type="text/css">
	.st0{fill:#006643;}
	.st1{display:none;fill:#006643;}
	.st2{fill:none;stroke:#006643;stroke-width:2.3189;stroke-miterlimit:10;}
</style>
<g id="Layer_2_1_">
	<g id="WA_Logo">
		<g>
			<path class="st0" d="M-126.2,362.1c-9.6-9.6-22.3-14.8-35.8-14.9c-27.9,0-50.6,22.7-50.7,50.6c0,8.9,2.3,17.6,6.8,25.3l-7.2,26.2
				l26.9-7c7.4,4,15.7,6.2,24.2,6.2l0,0l0,0c27.9,0,50.6-22.7,50.7-50.6C-111.3,384.4-116.6,371.7-126.2,362.1z M-162,440L-162,440
				c-7.6,0-15-2-21.4-5.9l-1.5-0.9l-15.9,4.2l4.3-15.5l-1-1.6c-4.2-6.7-6.4-14.4-6.4-22.4c0-23.2,18.9-42.1,42.1-42.1
				c11.2,0,21.8,4.4,29.8,12.3c7.9,8,12.3,18.5,12.3,29.8C-119.9,421.1-138.8,440-162,440z M-138.9,408.5c-1.3-0.6-7.5-3.7-8.6-4.1
				c-1.2-0.4-2-0.6-2.8,0.6c-0.8,1.3-3.3,4.1-4,5c-0.7,0.8-1.5,1-2.7,0.3c-1.3-0.6-5.3-2-10.2-6.3c-3.8-3.4-6.3-7.5-7-8.8
				s-0.1-2,0.6-2.6c0.6-0.6,1.3-1.5,1.9-2.2s0.8-1.3,1.3-2.1c0.4-0.8,0.2-1.6-0.1-2.2s-2.8-6.9-3.9-9.4c-1-2.5-2.1-2.1-2.8-2.2
				c-0.7,0-1.6,0-2.4,0c-0.8,0-2.2,0.3-3.4,1.6c-1.2,1.3-4.4,4.3-4.4,10.6c0,6.2,4.5,12.2,5.2,13.1c0.6,0.8,8.9,13.6,21.6,19.1
				c3,1.3,5.4,2.1,7.2,2.7c3,1,5.8,0.8,8,0.5c2.4-0.4,7.5-3.1,8.5-6c1.1-3,1.1-5.5,0.7-6C-136.8,409.4-137.6,409.1-138.9,408.5z"/>
		</g>
	</g>
</g>
<g id="Layer_1_1_">
	<g id="Layer_2">
		<g id="Layer_1-2">
			<path class="st1" d="M-141.6,381v1.3c-0.3,2.6-0.7,5.3-1,7.9c-0.3,2.2-0.5,4.3-0.8,6.6h-14.8v41.8h-16.5v-41.8h-11.1V381h11.1
				c0-2.6,0-5,0-7.5c-0.3-8.4,5.5-16,13.8-17.6c1.7-0.4,3.3-0.7,5-1h14.3v15.8c-1.5,0-3-0.1-4.5-0.1c-2.7,0-5.4,0-8.1,0.1
				c-1.1,0-2.1,0.6-2.1,1.8c0,2.8,0,5.7,0,8.5L-141.6,381L-141.6,381z"/>
			<path class="st2" d="M-206,327.6h82.5c15.4,0,27.8,12.5,27.8,27.8V438c0,15.4-12.5,27.8-27.8,27.8H-206
				c-15.4,0-27.8-12.5-27.8-27.8v-82.5C-233.8,340-221.4,327.6-206,327.6z"/>
		</g>
	</g>
</g>
</svg>
