<svg xmlns="http://www.w3.org/2000/svg" xmlns:xlink="http://www.w3.org/1999/xlink" width="492" height="408.65" viewBox="0 0 492 408.65">
  <defs>
    <clipPath id="clip-Web_1280_1">
      <rect width="492" height="408.65"/>
    </clipPath>
  </defs>
  <g id="Web_1280_1" data-name="Web 1280 – 1" clip-path="url(#clip-Web_1280_1)">
    <g id="back-arrow" transform="translate(0 -41.674)">
      <g id="Group_1" data-name="Group 1">
        <path id="Path_1" data-name="Path 1" d="M464.344,207.418l.768.168H135.888l103.5-103.724a27.181,27.181,0,0,0,0-38.212l-16.1-16.112a26.938,26.938,0,0,0-38.024-.02L7.844,226.914a27.123,27.123,0,0,0,0,38.156L185.256,442.482a26.962,26.962,0,0,0,38.024,0l16.1-16.112a26.649,26.649,0,0,0,7.848-19.008,25.85,25.85,0,0,0-7.848-18.652L134.72,284.406H464.712c14.828,0,27.288-12.78,27.288-27.6V234.018C492,219.2,479.172,207.418,464.344,207.418Z" fill="#006643"/>
      </g>
    </g>
  </g>
</svg>
