<?xml version="1.0" encoding="utf-8"?>
<!-- Generator: Adobe Illustrator 19.1.0, SVG Export Plug-In . SVG Version: 6.00 Build 0)  -->
<svg version="1.1" id="Layer_1" xmlns="http://www.w3.org/2000/svg" xmlns:xlink="http://www.w3.org/1999/xlink" x="0px" y="0px"
	 width="91.1px" height="92px" viewBox="-259 351 91.1 92" style="enable-background:new -259 351 91.1 92;" xml:space="preserve">
<style type="text/css">
	.st0{fill:#006643;}
	.st1{fill:#FFA100;}
	.st2{fill:#FFF2EF;}
</style>
<title>Asset 1</title>
<g id="Layer_2">
	<g id="Layer_1-2">
		<path class="st0" d="M-168,366.2c0-0.1,0-0.2,0-0.4c0-0.1,0-0.2,0-0.3c-0.4-7.7-5.5-13.6-12.6-14.4c-0.1,0-0.2,0-0.3,0
			c-0.9-0.1-1.7-0.2-2.6-0.2h-59.8c-0.9,0-1.7,0.1-2.5,0.2c-0.1,0-0.2,0-0.3,0c-7.2,0.8-12.3,6.7-12.8,14.4c0,0.1,0,0.2,0,0.3
			s0,0.2,0,0.4s0,0.2,0,0.4v60.8c0,0.1,0,0.2,0,0.4c0,0.1,0,0.2,0,0.4s0,0.2,0,0.3c0.5,7.8,5.6,13.6,12.8,14.4h0.3
			c0.8,0.1,1.7,0.2,2.6,0.2h59.8c0.9,0,1.8-0.1,2.6-0.2h0.2h0.1c7.1-0.8,12.2-6.7,12.6-14.4c0-0.1,0-0.2,0-0.3s0-0.2,0-0.4v-61.1
			C-167.9,366.5-167.9,366.4-168,366.2z M-256.6,428.2c0-0.1,0-0.2,0-0.3c0-0.1,0-0.2,0-0.3c0-0.1,0-0.3,0-0.4v-60.6
			c0-0.1,0-0.3,0-0.4c0-0.1,0-0.2,0-0.3c0-0.1,0-0.2,0-0.3c0.5-7,6.3-12.4,13.3-12.4h59.8c7,0,12.8,5.5,13.2,12.5c0,0.1,0,0.1,0,0.2
			c0,0.1,0,0.2,0,0.3c0,0.1,0,0.3,0,0.4v60.6c0,0.1,0,0.3,0,0.4c0,0.1,0,0.2,0,0.3c0,0.1,0,0.1,0,0.2c-0.4,7-6.2,12.5-13.2,12.5
			h-59.8C-250.4,440.6-256.1,435.2-256.6,428.2L-256.6,428.2z"/>
	</g>
</g>
<g id="Layer_2_1_">
	<g id="Layer_1-2_1_">
		<path class="st1" d="M-226.7,371.9h26.3c6.5,0,11.8,5.3,11.8,11.8v26.4c0,6.5-5.3,11.8-11.8,11.8h-26.3c-6.5,0-11.8-5.3-11.8-11.8
			v-26.4C-238.5,377.1-233.2,371.9-226.7,371.9z"/>
		<path class="st2" d="M-219.6,393.7c0,0,1.8-7.7,4.9-5.4c3.2,2.2-1.4,10.8-5.3,12.4c-3.9,1.7-5.6-5-3.8-9.3
			c1.8-4.3,4.3-12.2,13.6-13.5c5.9-0.7,8.5,3.3,8.5,3.3s-6.5,4.7-10.5,14.6c-4.1,9.9-11.3,16.3-11.9,16.3c0,0-5.3-3.3-8.8-2.8
			c-0.5,0.1-1.3,0.3-1.8,1c-0.5,0.9-0.2,2.1,0.4,2.9c0.9,1.3,2.6,1.4,3.6,1.5c2.7,0.2,4.8-0.7,6.3-1.5c0,0,4.7,2.9,8,2.9
			c1.3,0,2.1,0,2.4,0c2.8-0.3,4.7-1.7,5.8-2.6c-1.4,0.6-4.3,2.1-8.1,1.4c-2.4-0.5-4.6-1.3-6.9-2.3c0,0,4.4-1.9,8.8-9.8
			c1.5-2.7,3.3-6.6,4.8-9.1c2.9-4.9,4.9-8.2,8.5-11.5c0,0,2,3.6-0.2,8.9c-2.2,5.4-5.7,5.7-6.2,4.6s1.7-2,1.7-2s-1.9-0.7-2.6,1.9
			c-0.2,1,1.3,2.1,3.2,1.2c2-0.9,5.4-3.2,6-9.3c0.2-4.1-1.1-5.9-1.1-5.9s2.8-2.8,9.3-3.6c0,0-2.5-1.2-9.7,2.7
			c-0.8-0.9-3.2-3.1-6.7-3.7c-4.6-0.8-8.2,1.7-9.4,2.5c-2.9,2-4.3,4.6-5.6,6.7c-0.9,1.6-1.4,3-1.7,3.8c-0.4,1.2-0.9,2.7-1,4.5
			c0,0.3-0.1,3,0.9,4.9c0.3,0.6,0.6,0.9,0.8,1.1c0.3,0.3,0.9,0.8,1.8,1c1.8,0.4,3.3-0.7,3.8-1.1c0.4-0.3,0.7-0.7,1.2-1.2
			c0,0,0.8-0.9,1.5-1.8c1.2-1.7,3.7-7.6,1.5-9.7c-0.6-0.5-1.4-0.7-2-0.7c-2,0.1-3.3,2.9-3.8,4.7
			C-219.6,392.6-219.7,393.3-219.6,393.7z M-230.7,413.6c-1.5,0-3.4-0.5-3.4-2.1s1.9-1.7,3.7-1.2c1.7,0.6,3.2,1.4,4.6,2.5
			C-225.7,413-229.2,413.6-230.7,413.6z"/>
	</g>
</g>
</svg>
