<?xml version="1.0" encoding="utf-8"?>
<!-- Generator: Adobe Illustrator 19.1.0, SVG Export Plug-In . SVG Version: 6.00 Build 0)  -->
<svg version="1.1" id="Layer_1" xmlns="http://www.w3.org/2000/svg" xmlns:xlink="http://www.w3.org/1999/xlink" x="0px" y="0px"
	 width="91.1px" height="92px" viewBox="-259 351 91.1 92" style="enable-background:new -259 351 91.1 92;" xml:space="preserve">
<style type="text/css">
	.st0{fill:#006643;}
	.st1{fill:#FFA100;}
</style>
<title>Asset 9</title>
<g id="Layer_2">
	<g id="Layer_1-2">
		<path class="st0" d="M-168,366.2c0-0.1,0-0.2,0-0.4c0-0.1,0-0.2,0-0.3c-0.4-7.7-5.5-13.6-12.6-14.4c-0.1,0-0.2,0-0.3,0
			c-0.9-0.1-1.8-0.2-2.6-0.2h-59.8c-0.9,0-1.7,0.1-2.5,0.2c-0.1,0-0.2,0-0.3,0c-7.2,0.8-12.3,6.7-12.8,14.4c0,0.1,0,0.2,0,0.3
			s0,0.2,0,0.4s0,0.2,0,0.4v60.8c0,0.1,0,0.2,0,0.4c0,0.1,0,0.2,0,0.4s0,0.2,0,0.3c0.5,7.8,5.6,13.6,12.8,14.4h0.3
			c0.8,0.1,1.7,0.2,2.6,0.2h59.8c0.9,0,1.8-0.1,2.6-0.2h0.2h0.1c7.1-0.8,12.2-6.7,12.6-14.4c0-0.1,0-0.2,0-0.3v-0.4
			c0-0.1,0-0.2,0-0.4v-60.8C-167.9,366.5-168,366.4-168,366.2z M-256.6,428.2c0-0.1,0-0.2,0-0.3c0-0.1,0-0.2,0-0.3
			c0-0.1,0-0.3,0-0.4v-60.6c0-0.1,0-0.3,0-0.4s0-0.2,0-0.3c0-0.1,0-0.2,0-0.3c0.5-7,6.2-12.4,13.2-12.4h59.8c7,0,12.8,5.5,13.2,12.5
			c0,0.1,0,0.1,0,0.2s0,0.2,0,0.3c0,0.1,0,0.3,0,0.4v60.6c0,0.1,0,0.3,0,0.4s0,0.2,0,0.3c0,0.1,0,0.1,0,0.2
			c-0.4,7-6.2,12.5-13.2,12.5h-59.8C-250.4,440.6-256.1,435.2-256.6,428.2z"/>
		<polygon class="st1" points="-246.4,403.7 -246.4,433.1 -234.9,433.1 -234.9,398.7 -237,397.2 		"/>
		<polygon class="st1" points="-226.7,404.3 -228.7,403 -231.8,400.8 -231.8,433.1 -220.3,433.1 -220.3,400 -224.6,403 		"/>
		<polygon class="st1" points="-217.2,433.1 -205.7,433.1 -205.7,389.9 -217.2,397.9 		"/>
		<polygon class="st1" points="-202.7,387.8 -202.7,433.1 -191.1,433.1 -191.1,379.8 		"/>
		<polygon class="st0" points="-192.7,362.9 -190.6,366 -228.1,392 -237.1,385.6 -238.3,384.7 -239.7,385.6 -246.4,390.3 
			-246.4,395.7 -238.4,390.1 -229.4,396.5 -228.1,397.3 -226.8,396.5 -188.1,369.6 -185.7,373 -180.5,361.9 		"/>
	</g>
</g>
</svg>
