<svg width="24" height="24" viewBox="0 0 24 24" fill="none" xmlns="http://www.w3.org/2000/svg">
<g clip-path="url(#clip0_0_74)">
<path fill-rule="evenodd" clip-rule="evenodd" d="M12 0C5.37566 0 0 5.37566 0 12C0 18.6243 5.37566 24 12 24C18.6243 24 24 18.6243 24 12C24 5.37566 18.6243 0 12 0ZM12 21.8201C6.58201 21.8201 2.17989 17.418 2.17989 12C2.17989 6.58201 6.58201 2.17989 12 2.17989C17.418 2.17989 21.8201 6.58201 21.8201 12C21.8201 17.418 17.418 21.8201 12 21.8201Z" fill="#F38423"/>
<path fill-rule="evenodd" clip-rule="evenodd" d="M12 2.1799C6.58202 2.1799 2.1799 6.58202 2.1799 12C2.1799 17.418 6.58202 21.8201 12 21.8201C17.418 21.8201 21.8201 17.418 21.8201 12C21.8201 6.58202 17.418 2.1799 12 2.1799ZM17.1429 15.5979C17.5661 16.0212 17.5661 16.6984 17.1429 17.1429C16.6984 17.5661 16.0212 17.5661 15.5979 17.1429L12 13.545L8.40212 17.1429C7.97884 17.5661 7.30159 17.5661 6.87831 17.1429C6.43387 16.6984 6.43387 16.0212 6.87831 15.5979L10.455 12L6.87831 8.40212C6.43387 7.97884 6.43387 7.30159 6.87831 6.87831C7.30159 6.43387 7.97884 6.43387 8.40212 6.87831L12 10.455L15.5979 6.87831C16.0212 6.43387 16.6984 6.43387 17.1429 6.87831C17.5873 7.32276 17.5661 7.97884 17.1429 8.40212L13.545 12L17.1429 15.5979Z" fill="#F38423"/>
<path d="M17.1429 15.5979C17.5661 16.0212 17.5661 16.6984 17.1429 17.1429C16.6984 17.5661 16.0212 17.5661 15.5979 17.1429L12 13.545L8.40212 17.1429C7.97884 17.5661 7.30159 17.5661 6.87831 17.1429C6.43387 16.6984 6.43387 16.0212 6.87831 15.5979L10.455 12L6.87831 8.40212C6.43387 7.97884 6.43387 7.30159 6.87831 6.87831C7.30159 6.43387 7.97884 6.43387 8.40212 6.87831L12 10.455L15.5979 6.87831C16.0212 6.43387 16.6984 6.43387 17.1429 6.87831C17.5873 7.32276 17.5661 7.97884 17.1429 8.40212L13.545 12L17.1429 15.5979Z" fill="white"/>
</g>
<defs>
<clipPath id="clip0_0_74">
<rect width="24" height="24" fill="white"/>
</clipPath>
</defs>
</svg>