<?xml version="1.0" encoding="utf-8"?>
<!-- Generator: Adobe Illustrator 19.1.0, SVG Export Plug-In . SVG Version: 6.00 Build 0)  -->
<svg version="1.1" id="Layer_1" xmlns="http://www.w3.org/2000/svg" xmlns:xlink="http://www.w3.org/1999/xlink" x="0px" y="0px"
	 width="91.1px" height="92px" viewBox="-259 351 91.1 92" style="enable-background:new -259 351 91.1 92;" xml:space="preserve">
<style type="text/css">
	.st0{fill:#006643;}
	.st1{fill:#026845;}
	.st2{fill:#FFA100;}
	.st3{opacity:0.37;fill:#999999;}
	.st4{opacity:0.39;fill:#FFA100;}
	.st5{fill:#FFFFFF;stroke:#FFA100;stroke-width:0.483;stroke-miterlimit:10;}
	.st6{fill:#FFFFFF;stroke:#FFA100;stroke-width:0.3735;stroke-miterlimit:10;}
	.st7{fill:#FFFFFF;stroke:#FFA100;stroke-width:0.4822;stroke-miterlimit:10;}
</style>
<g id="Layer_2">
	<g id="Layer_1-2">
		<path class="st0" d="M-168,366.2c0-0.1,0-0.2,0-0.4c0-0.1,0-0.2,0-0.3c-0.4-7.7-5.5-13.6-12.6-14.4c-0.1,0-0.2,0-0.3,0
			c-0.9-0.1-1.8-0.2-2.6-0.2h-59.8c-0.9,0-1.7,0.1-2.5,0.2c-0.1,0-0.2,0-0.3,0c-7.2,0.8-12.3,6.7-12.8,14.4c0,0.1,0,0.2,0,0.3
			s0,0.2,0,0.4s0,0.2,0,0.4v60.8c0,0.1,0,0.2,0,0.4c0,0.1,0,0.2,0,0.4s0,0.2,0,0.3c0.5,7.8,5.6,13.6,12.8,14.4h0.3
			c0.8,0.1,1.7,0.2,2.6,0.2h59.8c0.9,0,1.8-0.1,2.6-0.2h0.2h0.1c7.1-0.8,12.2-6.7,12.6-14.4c0-0.1,0-0.2,0-0.3v-0.4
			c0-0.1,0-0.2,0-0.4v-60.8C-167.9,366.5-168,366.4-168,366.2z M-256.6,428.2c0-0.1,0-0.2,0-0.3c0-0.1,0-0.2,0-0.3
			c0-0.1,0-0.3,0-0.4v-60.6c0-0.1,0-0.3,0-0.4s0-0.2,0-0.3c0-0.1,0-0.2,0-0.3c0.5-7,6.2-12.4,13.2-12.4h59.8c7,0,12.8,5.5,13.2,12.5
			c0,0.1,0,0.1,0,0.2s0,0.2,0,0.3c0,0.1,0,0.3,0,0.4v60.6c0,0.1,0,0.3,0,0.4s0,0.2,0,0.3c0,0.1,0,0.1,0,0.2
			c-0.4,7-6.2,12.5-13.2,12.5h-59.8C-250.4,440.6-256.1,435.2-256.6,428.2z"/>
	</g>
</g>
<g>
	<path class="st1" d="M-174.9,401.8l0.3,0.4c-1.9,3.5-3.9,7-5.8,10.4c-1.8,3.2-3.7,6.3-5.6,9.4l-0.8,0.6c-0.2,0.1-0.3,0-0.3,0
		c-3.9,0.6-7.8,1.3-11.7,1.8c-2.6,0-4.9,1.5-6.3,3.6c0,0.1-0.1,0.1-0.3,0.2l-6.1-3.7c2.4-3.3,4.8-6.4,7.2-9.6
		c0.3-0.4,0.8-0.7,1.3-0.9c4.1-2,8.6-2.6,13.2-2c0.3,0,0.7,0.2,0.9,0.5c0,0.1,0,0.1,0.1,0.2c0.5,1.3,0,2.6-1.2,3.1
		c-0.7,0.3-1.4,0.6-2.2,0.9l-2.9,1.4c2.2-0.5,4.2-1,6.3-1.6c1-0.1,1.7-1.1,1.5-2.1c-0.1-0.3-0.1-0.7-0.2-1.1c-0.3-0.8,0-1.7,0.7-2.2
		c2.5-2.4,4.7-4.8,7-7.4C-178.6,402-177.1,401.1-174.9,401.8L-174.9,401.8L-174.9,401.8z"/>
</g>
<path class="st1" d="M-252.3,401.7L-252.3,401.7c2.2-0.6,3.7,0.2,5.1,1.8c2.3,2.6,4.5,4.9,7,7.4c0.7,0.6,1,1.4,0.7,2.2
	c-0.1,0.3-0.1,0.8-0.2,1.1c-0.1,1,0.5,2,1.5,2.1c2.1,0.6,4.1,1.2,6.3,1.6l-2.9-1.4c-0.7-0.3-1.5-0.6-2.2-0.9
	c-1.2-0.5-1.8-1.9-1.2-3.1c0,0,0.1-0.1,0.1-0.2c0.2-0.3,0.5-0.5,0.9-0.5c4.5-0.6,9.1,0,13.2,2c0.5,0.2,0.9,0.5,1.3,0.9
	c2.4,3.2,4.7,6.3,7.2,9.6l-6.1,3.7c-0.1-0.1-0.3-0.1-0.3-0.2c-1.3-2.1-3.6-3.5-6.3-3.6c-3.9-0.4-7.8-1.1-11.7-1.8
	c-0.1,0-0.2,0-0.3,0l-0.8-0.6c-1.9-3.1-3.8-6.2-5.6-9.4c-1.9-3.4-3.9-6.9-5.8-10.4L-252.3,401.7L-252.3,401.7z"/>
<g id="Layer_2_1_">
	<g id="Layer_1-2_2_">
		<path class="st2" d="M-192.9,398.1h-1.8l-15.8-20.9h-2.3v-3.5c-3.6,0-7.1,0-10.7,0c0,3.9,0,1.2,0,8.1v0.8l-0.3-0.3
			c-0.7-0.8-1.5-1.5-2.4-2.3c-0.1-0.1-0.2-0.1-0.4-0.1c-1.4,1-2.8,1.9-4.2,2.8c-0.3,0.2-0.5,0.5-0.5,1.1V398h-1.9
			c-0.3,0-0.4,0.2-0.4,0.8v1.2c0,1,0,1,0.6,1h40.2c0.2,0,0.3-0.2,0.3-0.5V399C-192.4,398.2-192.5,398.1-192.9,398.1z M-226.1,381.1
			c0.1,0,0.2,0.1,0.2,0.2c0.7,0.8,1.5,1.4,2.2,2.1c0.2,0.2,0.2,0.5,0.2,0.7V398h-2.6L-226.1,381.1z M-192.9,400.1H-233V399h40.2
			L-192.9,400.1z"/>
	</g>
</g>
<path class="st3" d="M-181.5,364.3c0,1.3-1,2.5-2.3,2.7c-1.3,0.2-2.6-0.5-3.1-1.7c-0.1,1.4-1,2.7-2.3,3.2c-1.7,0.7-3.2-0.2-3.4-0.3
	c0,0.6-0.3,1.2-0.8,1.5c-0.6,0.3-1.3,0.3-1.8-0.1c-0.3,1.6-1.7,2.6-3.1,2.5c-1.6-0.1-3-1.8-2.6-3.6c0.2-0.6,0.5-1.2,0.7-1.8
	c0.3-0.4,0.9-1.1,2-1.4c2-0.7,3.8,0.4,4,0.6c0.4-1,0.9-2.1,1.3-3.1c0.3-0.2,1.2-1.1,2.6-1.2c1.4-0.1,2.4,0.4,2.7,0.6
	c0.7-0.8,1.5-1.6,2.2-2.4c1.8-0.5,3.5,0.3,4.1,1.7C-180.6,362.7-181.4,364.1-181.5,364.3z"/>
<path class="st4" d="M-181.5,365.9c0,1.3-1,2.4-2.3,2.6c-1.3,0.2-2.5-0.5-3-1.7c-0.1,1.4-1,2.6-2.3,3.2c-1.7,0.7-3.2-0.2-3.3-0.3
	c0,0.6-0.3,1.1-0.8,1.4c-0.5,0.3-1.2,0.3-1.8-0.1c-0.3,1.5-1.7,2.6-3.1,2.5c-1.6-0.1-2.9-1.8-2.6-3.6c0.2-0.6,0.5-1.2,0.7-1.8
	c0.3-0.4,0.9-1,1.9-1.4c2-0.7,3.7,0.4,3.9,0.5c0.4-1,0.9-2.1,1.3-3.1c0.2-0.2,1.1-1.1,2.6-1.2c1.3-0.1,2.3,0.4,2.6,0.6
	c0.7-0.8,1.5-1.6,2.2-2.3c1.8-0.5,3.5,0.3,4.1,1.7C-180.6,364.4-181.4,365.8-181.5,365.9z"/>
<rect x="-203.8" y="374.2" class="st5" width="2.8" height="24.5"/>
<rect x="-214.6" y="380.8" class="st6" width="5.6" height="17.2"/>
<rect x="-222.4" y="374.6" class="st7" width="6.9" height="23.4"/>
</svg>
