<?xml version="1.0" encoding="utf-8"?>
<!-- Generator: Adobe Illustrator 19.1.0, SVG Export Plug-In . SVG Version: 6.00 Build 0)  -->
<svg version="1.1" id="Layer_1" xmlns="http://www.w3.org/2000/svg" xmlns:xlink="http://www.w3.org/1999/xlink" x="0px" y="0px"
	 width="91.1px" height="92px" viewBox="-259 351 91.1 92" style="enable-background:new -259 351 91.1 92;" xml:space="preserve">
<style type="text/css">
	.st0{fill:#006643;}
	.st1{fill:#FFA100;}
	.st2{fill:none;stroke:#F4AE1C;stroke-miterlimit:10;}
</style>
<title>Asset 4</title>
<g id="Layer_2">
	<g id="Layer_1-2">
		<path class="st0" d="M-168,366.2c0-0.1,0-0.2,0-0.4c0-0.1,0-0.2,0-0.3c-0.4-7.7-5.5-13.6-12.6-14.4c-0.1,0-0.2,0-0.3,0
			c-0.9-0.1-1.8-0.2-2.6-0.2h-59.8c-0.9,0-1.7,0.1-2.5,0.2c-0.1,0-0.2,0-0.3,0c-7.2,0.8-12.3,6.7-12.8,14.4c0,0.1,0,0.2,0,0.3
			s0,0.2,0,0.4s0,0.2,0,0.4v60.8c0,0.1,0,0.2,0,0.4c0,0.1,0,0.2,0,0.4s0,0.2,0,0.3c0.5,7.8,5.6,13.6,12.8,14.4h0.3
			c0.8,0.1,1.7,0.2,2.6,0.2h59.8c0.9,0,1.8-0.1,2.6-0.2h0.2h0.1c7.1-0.8,12.2-6.7,12.6-14.4c0-0.1,0-0.2,0-0.3v-0.4
			c0-0.1,0-0.2,0-0.4v-60.8C-167.9,366.5-167.9,366.4-168,366.2z M-256.6,428.2c0-0.1,0-0.2,0-0.3c0-0.1,0-0.2,0-0.3v-61.4
			c0-0.1,0-0.2,0-0.3c0-0.1,0-0.2,0-0.3c0.5-7,6.3-12.4,13.3-12.4h59.8c7,0,12.8,5.5,13.2,12.5c0,0.1,0,0.1,0,0.2c0,0.1,0,0.2,0,0.3
			c0,0.1,0,0.3,0,0.4v60.6c0,0.1,0,0.3,0,0.4c0,0.1,0,0.2,0,0.3c0,0.1,0,0.1,0,0.2c-0.4,7-6.2,12.5-13.2,12.5h-59.8
			C-250.4,440.6-256.1,435.2-256.6,428.2L-256.6,428.2z"/>
		<path class="st1" d="M-183.1,378.2c1.3,0,2.4,1.1,2.4,2.4l0,0v33.8c0,1.3-1.1,2.4-2.4,2.4h-62.2c-1.3,0-2.4-1.1-2.4-2.4
			c0,0,0,0,0,0v-33.8c0-1.3,1.1-2.4,2.4-2.4l0,0H-183.1 M-183.1,376h-62.2c-2.5,0-4.6,2.1-4.6,4.6v33.8c0,2.5,2.1,4.6,4.6,4.6h62.2
			c2.5,0,4.6-2.1,4.6-4.6c0,0,0,0,0,0v-33.8C-178.5,378.1-180.5,376-183.1,376C-183,376-183.1,376-183.1,376L-183.1,376z"/>
		<path class="st1" d="M-200.3,386.7c3.3,0,6,2.7,6,6c0,3.3-2.7,6-6,6s-6-2.7-6-6C-206.3,389.4-203.6,386.7-200.3,386.7z"/>
		<path class="st1" d="M-192,387.8c2.7,0,4.9,2.2,4.9,4.9c0,2.7-2.2,4.9-4.9,4.9s-4.9-2.2-4.9-4.9c0,0,0,0,0,0
			C-196.9,389.9-194.7,387.8-192,387.8 M-192,386.7c-3.3,0-6,2.7-6,6c0,3.3,2.7,6,6,6s6-2.7,6-6C-186,389.4-188.7,386.7-192,386.7z"
			/>
		<path class="st0" d="M-235.7,394.1c0,1.2-1,2.2-2.2,2.3c-0.4,0-0.7,0-1.1,0h-2.9v-7.7h2.9c0.3,0,0.7,0,1,0c1.1,0,2,0.9,2,2
			c0,0.7-0.5,1.4-1.2,1.5C-236.2,392.4-235.6,393.2-235.7,394.1z M-240.1,391.9h1c0.2,0,0.3,0,0.5,0c0.5-0.1,0.8-0.5,0.7-0.9
			c0-0.4-0.4-0.7-0.7-0.7c-0.2,0-0.4,0-0.5,0h-1L-240.1,391.9z M-237.5,394.1c0-0.5-0.3-0.9-0.8-1c0,0-0.1,0-0.1,0
			c-0.2,0-0.4,0-0.5,0h-1.2v2h1.7C-237.9,395.1-237.5,394.7-237.5,394.1C-237.5,394.1-237.5,394.1-237.5,394.1z"/>
		<path class="st0" d="M-232.7,394.3l-0.7,2.2h-1.9l2.8-7.7h2.2l2.8,7.7h-1.9l-0.7-2.2H-232.7z M-232.2,392.9h1.6l-0.8-2.6
			L-232.2,392.9z"/>
		<path class="st0" d="M-222,396.5l-3-5.5c0,0.8,0.1,1.6,0.1,2.2v3.3h-1.8v-7.8h2.3l3.1,5.7c0-0.8,0-1.7,0-2.3v-3.4h1.7v7.7H-222z"
			/>
		<path class="st0" d="M-211.2,396.5h-2.2l-2.3-3.1l-0.6,0.7v2.4h-1.7v-7.7h1.8v3.6l3.2-3.6h2.1l-3.4,3.7L-211.2,396.5z"/>
		<path class="st2" d="M-233.9,408.2h-6.6c-0.7,0-1.2-0.5-1.2-1.2l0,0v-4.3c0-0.7,0.5-1.2,1.2-1.2l0,0h6.6c0.7,0,1.2,0.5,1.2,1.2
			l0,0v4.3C-232.7,407.7-233.2,408.2-233.9,408.2z"/>
		<rect x="-241.8" y="403.2" class="st2" width="9.1" height="0.5"/>
		<rect x="-241.8" y="406" class="st2" width="9.1" height="0.5"/>
		<path class="st0" d="M-235,414.1h-0.8v-2.8l-1.1,0.6v-0.8l0.9-0.5c0.2-0.1,0.4-0.2,0.7-0.2h0.4C-235,410.4-235,414.1-235,414.1z"
			/>
		<path class="st0" d="M-231,413.5v0.7h-2.8v-0.4l1.2-1.2c0.5-0.5,0.7-0.8,0.7-1.1c0-0.3-0.2-0.5-0.4-0.5c0,0,0,0-0.1,0
			c-0.3,0-0.5,0.2-0.5,0.6l0,0h-0.9l0,0c0-0.7,0.6-1.3,1.3-1.3c0,0,0.1,0,0.1,0c0.8,0,1.3,0.4,1.3,1.1c0,0.5-0.2,0.8-0.9,1.5
			l-0.6,0.6L-231,413.5L-231,413.5z"/>
		<path class="st0" d="M-227.5,413c0,0.7-0.6,1.2-1.5,1.2c-0.7,0.1-1.4-0.4-1.5-1.1c0,0,0-0.1,0-0.1l0,0h0.8l0,0
			c0,0.3,0.3,0.6,0.6,0.6c0.3,0,0.6-0.2,0.6-0.5c0,0,0,0,0-0.1c0-0.4-0.2-0.5-0.7-0.6h-0.1V412h0.1c0.4,0,0.6-0.2,0.6-0.5
			c0-0.2-0.2-0.4-0.4-0.5c0,0,0,0-0.1,0c-0.3,0-0.5,0.2-0.5,0.5c0,0,0,0,0,0l0,0h-0.9l0,0c0.1-0.7,0.7-1.2,1.4-1.2c0,0,0,0,0,0
			c0.9,0,1.3,0.4,1.3,1c0,0.4-0.3,0.8-0.7,0.8C-227.8,412.2-227.5,412.6-227.5,413z"/>
		<path class="st0" d="M-224.4,413.3v0.9h-0.8v-0.9h-1.8v-0.5l1.7-2.4h0.9v2.2h0.5v0.7H-224.4z M-225.2,411.3l-0.2,0.4l-0.7,0.9h0.9
			L-225.2,411.3z"/>
		<path class="st0" d="M-218.6,413.5v0.7h-2.8v-0.4l1.2-1.2c0.5-0.5,0.7-0.8,0.7-1.1c0-0.3-0.2-0.5-0.4-0.5c0,0,0,0-0.1,0
			c-0.3,0-0.5,0.2-0.5,0.6l0,0h-0.9l0,0c0-0.7,0.6-1.3,1.3-1.3c0,0,0.1,0,0.1,0c0.8,0,1.3,0.4,1.3,1.1c0,0.5-0.2,0.8-0.9,1.5
			l-0.6,0.6L-218.6,413.5L-218.6,413.5z"/>
		<path class="st0" d="M-215.1,413c0,0.7-0.6,1.2-1.5,1.2c-0.7,0.1-1.4-0.4-1.5-1.1c0,0,0-0.1,0-0.1l0,0h0.8l0,0
			c0,0.3,0.3,0.6,0.6,0.6c0.3,0,0.6-0.2,0.6-0.5c0,0,0,0,0-0.1c0-0.4-0.2-0.5-0.7-0.6h-0.1V412h0.1c0.4,0,0.6-0.2,0.6-0.5
			c0-0.2-0.2-0.4-0.4-0.5c0,0,0,0-0.1,0c-0.3,0-0.5,0.2-0.5,0.5c0,0,0,0,0,0l0,0h-0.8l0,0c0.1-0.7,0.7-1.2,1.4-1.2c0,0,0,0,0,0
			c0.8,0,1.3,0.4,1.3,1c0,0.4-0.3,0.8-0.7,0.8C-215.4,412.2-215.1,412.6-215.1,413z"/>
		<path class="st0" d="M-212,413.3v0.9h-0.9v-0.9h-1.8v-0.5l1.7-2.4h0.9v2.2h0.5v0.7H-212z M-212.9,411.3l-0.2,0.4l-0.6,0.9h0.9
			C-212.9,412.6-212.9,411.3-212.9,411.3z"/>
		<path class="st0" d="M-208.5,413.3v0.9h-0.8v-0.9h-1.8v-0.5l1.7-2.4h0.9v2.2h0.5v0.7H-208.5z M-209.4,411.3l-0.2,0.4l-0.7,0.9h0.9
			V411.3z"/>
		<path class="st0" d="M-202.7,412.9c0,0.7-0.6,1.3-1.3,1.3c0,0-0.1,0-0.1,0c-0.9,0-1.3-0.3-1.4-1.1V413h0.8v0.1
			c0,0.3,0.2,0.5,0.5,0.5c0,0,0,0,0,0c0.4,0,0.7-0.3,0.7-0.7s-0.3-0.7-0.7-0.7c-0.3,0-0.5,0.1-0.5,0.4h-0.8l0.3-2.2h2.4v0.7h-1.7
			l-0.1,0.9l0.2-0.2c0.2-0.1,0.4-0.1,0.6-0.1c0.6,0,1.2,0.4,1.2,1.1C-202.7,412.7-202.7,412.8-202.7,412.9z"/>
		<path class="st0" d="M-199.6,413.3v0.9h-0.8v-0.9h-1.8v-0.5l1.7-2.4h0.9v2.2h0.5v0.7H-199.6z M-200.5,411.3l-0.2,0.4l-0.7,0.9h0.9
			L-200.5,411.3z"/>
		<path class="st0" d="M-195.8,412.9c0,0.7-0.6,1.3-1.3,1.3c0,0-0.1,0-0.1,0c-0.9,0-1.3-0.3-1.4-1.1V413h0.8v0.1
			c0,0.3,0.2,0.5,0.5,0.5c0,0,0,0,0,0c0.4,0,0.7-0.3,0.7-0.7s-0.3-0.7-0.7-0.7c-0.3,0-0.5,0.1-0.6,0.4h-0.8l0.3-2.2h2.4v0.7h-1.7
			l-0.1,0.9l0.2-0.2c0.2-0.1,0.4-0.2,0.6-0.1c0.6-0.1,1.2,0.4,1.3,1.1C-195.8,412.7-195.8,412.8-195.8,412.9z"/>
		<path class="st0" d="M-192.3,412.8c0,0.7-0.6,1.4-1.3,1.4c0,0-0.1,0-0.1,0c-1,0-1.5-0.6-1.5-1.8s0.6-2,1.6-2
			c0.6-0.1,1.2,0.4,1.3,1c0,0,0,0,0,0v0h-0.9v0c-0.1-0.3-0.2-0.4-0.5-0.4s-0.6,0.4-0.7,1.2l0.2-0.3c0.2-0.1,0.4-0.2,0.7-0.2
			c0.6-0.1,1.2,0.4,1.2,1C-192.3,412.7-192.3,412.8-192.3,412.8z M-193.2,412.9c0-0.4-0.2-0.7-0.6-0.7c-0.3,0-0.6,0.3-0.6,0.6
			c0,0,0,0,0,0.1c0,0.4,0.2,0.7,0.6,0.7C-193.4,413.6-193.2,413.3-193.2,412.9C-193.2,413-193.2,413-193.2,412.9L-193.2,412.9z"/>
	</g>
</g>
</svg>
