<?xml version="1.0" encoding="utf-8"?>
<!-- Generator: Adobe Illustrator 19.1.0, SVG Export Plug-In . SVG Version: 6.00 Build 0)  -->
<svg version="1.1" id="Layer_1" xmlns="http://www.w3.org/2000/svg" xmlns:xlink="http://www.w3.org/1999/xlink" x="0px" y="0px"
	 viewBox="-235 326 141 141" enable-background="new -235 326 141 141" xml:space="preserve">
<g id="Layer_2">
	<g id="Layer_1-2">
		<path fill="none" stroke="#006643" stroke-width="2.3056" stroke-miterlimit="10" d="M-205.7,328h82.1c15.3,0,27.7,12.4,27.7,27.7
			v82.1c0,15.3-12.4,27.7-27.7,27.7h-82.1c-15.3,0-27.7-12.4-27.7-27.7v-82.1C-233.4,340.4-221,328-205.7,328z"/>
		<path fill="#006643" d="M-163.3,428.1v6.5h-9.8c0-0.3,0-0.6,0-0.8c0-6.5,0-13,0-19.4c0-0.5,0.1-0.9,0.4-1.3c1.5-1.9,3-3.9,4.5-5.8
			c0.1-0.1,0.2-0.3,0.3-0.5h0.1V428L-163.3,428.1z"/>
		<path fill="#006643" d="M-163.3,364.5h-4.5v20.3c-0.2-0.2-0.3-0.3-0.5-0.5c-1.6-1.9-3-3.9-4.6-5.8c-0.2-0.3-0.3-0.6-0.4-0.9
			c0-6.4,0-12.9,0-19.3c0-0.1,0-0.2,0-0.4h9.8L-163.3,364.5z"/>
		<path fill="#006643" d="M-201.6,387.8c1.4-2.3-1.5-2.9-1.4-2.9h-13v17.4L-201.6,387.8z"/>
		<path fill="#006643" d="M-158.9,396c0.1-0.1,0.1-0.3,0-0.5c-10.4-10.4-21.2-20.8-31.6-31h-0.5v7.7c0,0.2,0.1,0.3,0.3,0.4
			c2.6-0.2,5.2,0.9,6.9,2.8c1.5,1.5,5.4,14.6-2.5,18.2c-1.6,0.7-3.2,1.1-4.9,1.1c-1.2,0-2.2-0.2-3.3-0.5c-0.1-0.1-0.2-0.1-0.3,0
			l-12.9,13.6c-0.1,0.1-0.1,0.4,0,0.5l3.1,2.7c0.1,0,0.2,0,0.2,0h12.9c0.2,0,0.3,0.1,0.4,0.3v15.2c0,0.2,0.2,0.3,0.4,0.3
			c0.1,0,0.1,0,0.2-0.1C-178.7,416.8-169.2,406.3-158.9,396z"/>
		<path fill="none" stroke="#006643" stroke-width="1.1528" stroke-linejoin="round" d="M-186.3,378.1c-3.1-3.1-8.1-3.1-11.1,0
			c-2.6,2.5-3.1,6.6-1.2,9.7l-26.2,26.2c-0.2,0.2-0.2,0.5,0,0.7l1.9,2c0.2,0.2,0.5,0.2,0.7,0l1.4-1.4l5.4,5.3c0.2,0.2,0.5,0.2,0.7,0
			l1.7-1.7c0.2-0.2,0.2-0.5,0-0.7l-6.5-6.2c1.6,1.5,3.1,2.7,4.9,4l1.7-1.7c0.1-0.2,0.1-0.4,0-0.6l-3-3.1l1.7-1.7l4.6,4.6
			c0.2,0.2,0.5,0.2,0.7,0l1.7-1.6c0.2-0.2,0.2-0.5,0-0.7l-4.6-4.6l16.4-16.4c3.7,2.2,8.6,1.1,10.8-2.6
			C-183.3,384.7-183.8,380.7-186.3,378.1z"/>
		<circle fill="none" stroke="#006643" stroke-width="1.1528" stroke-linejoin="round" cx="-189.8" cy="382.2" r="2.3"/>
		<path fill="none" stroke="#006643" stroke-width="2.3056" stroke-linejoin="round" d="M-124.7,361.5c-10.8-3-21.4-6.1-32.3-9.3
			c-0.2,0-0.5-0.1-0.5-0.2v88.8c0,0,0.3-0.1,0.5-0.2c10.8-3,21.5-6.1,32.3-9.3c0.6-0.2,0.8-0.4,0.8-1c0-22.6,0-45.3,0-68
			C-123.9,362-124.2,361.7-124.7,361.5z"/>
		<ellipse fill="#006643" cx="-146.1" cy="397.1" rx="4.6" ry="5.8"/>
	</g>
</g>
</svg>
