<svg xmlns="http://www.w3.org/2000/svg" viewBox="0 0 53.62 43.35"><title>Asset 10</title><g id="Layer_2" data-name="Layer 2"><g id="Layer_1-2" data-name="Layer 1"><path d="M37.1,18.23V43.35H0v-25c.16,0,.31,0,.47,0h7.6a.65.65,0,0,1,.66.32,5.31,5.31,0,0,0,9,.07,1,1,0,0,1,.93-.51c5.93,0,11.86,0,17.78,0ZM8.77,33.55h3.59a1.28,1.28,0,0,0,1.43-1.42c0-2.37,0-4.75,0-7.12a1.26,1.26,0,0,0-1.43-1.41q-3.58,0-7.18,0A1.27,1.27,0,0,0,3.75,25c0,2.38,0,4.75,0,7.13a1.27,1.27,0,0,0,1.43,1.41Zm9.7,6.52H31.81a1.27,1.27,0,0,0,1.29-1.79,1.39,1.39,0,0,0-1.42-.75H5.43c-1.1,0-1.69.45-1.68,1.27s.59,1.26,1.7,1.26Z" style="fill:#006643"/><path d="M45.44,19.84l-6,5.83V18a2,2,0,0,0-2.27-2.29H28a1.11,1.11,0,0,1-.93-.39c-1.88-2.08-3.78-4.14-5.67-6.21-.39-.42-.85-.8-1.45-.58A1.64,1.64,0,0,0,19,9.3c-1.12,2.52-2.19,5.06-3.26,7.61a2.82,2.82,0,0,1-3.5,1.56,2.86,2.86,0,0,1-1.59-3.68c.72-1.86,1.5-3.7,2.25-5.55l2.76-6.73A3.52,3.52,0,0,1,20.86.62L32.47,6.7a2.37,2.37,0,0,1,.61.42q6.06,6.21,12.11,12.44A2.63,2.63,0,0,1,45.44,19.84Z" style="fill:#006643"/><path d="M53.62,11.89l-6.44,6.22L35.4,6l6.34-6ZM47.5,15a3.32,3.32,0,0,0,.06-6.63A3.32,3.32,0,1,0,47.5,15Z" style="fill:#006643"/><path d="M47.53,13.31a1.6,1.6,0,1,1,1.59-1.61A1.61,1.61,0,0,1,47.53,13.31Z" style="fill:#006643"/></g></g></svg>