<?xml version="1.0" encoding="utf-8"?>
<!-- Generator: Adobe Illustrator 19.1.0, SVG Export Plug-In . SVG Version: 6.00 Build 0)  -->
<svg version="1.1" id="Layer_1" xmlns="http://www.w3.org/2000/svg" xmlns:xlink="http://www.w3.org/1999/xlink" x="0px" y="0px"
	 width="91.1px" height="92px" viewBox="-259 351 91.1 92" style="enable-background:new -259 351 91.1 92;" xml:space="preserve">
<style type="text/css">
	.st0{fill:#006643;}
	.st1{fill:#FFA100;}
</style>
<title>Asset 1</title>
<g id="Layer_2">
	<path class="st0" d="M-168,366.2c0-0.1,0-0.2,0-0.4c0-0.1,0-0.2,0-0.3c-0.4-7.7-5.5-13.6-12.6-14.4c-0.1,0-0.2,0-0.3,0
		c-0.9-0.1-1.7-0.2-2.6-0.2h-59.8c-0.9,0-1.7,0.1-2.5,0.2c-0.1,0-0.2,0-0.3,0c-7.2,0.8-12.3,6.7-12.8,14.4c0,0.1,0,0.2,0,0.3
		s0,0.2,0,0.4s0,0.2,0,0.4v60.8c0,0.1,0,0.2,0,0.4c0,0.1,0,0.2,0,0.4s0,0.2,0,0.3c0.5,7.8,5.6,13.6,12.8,14.4h0.3
		c0.8,0.1,1.7,0.2,2.6,0.2h59.8c0.9,0,1.8-0.1,2.6-0.2h0.2h0.1c7.1-0.8,12.2-6.7,12.6-14.4c0-0.1,0-0.2,0-0.3s0-0.2,0-0.4v-61.1
		C-167.9,366.5-167.9,366.4-168,366.2z M-256.6,428.2c0-0.1,0-0.2,0-0.3c0-0.1,0-0.2,0-0.3c0-0.1,0-0.3,0-0.4v-60.6
		c0-0.1,0-0.3,0-0.4c0-0.1,0-0.2,0-0.3c0-0.1,0-0.2,0-0.3c0.5-7,6.3-12.4,13.3-12.4h59.8c7,0,12.8,5.5,13.2,12.5c0,0.1,0,0.1,0,0.2
		c0,0.1,0,0.2,0,0.3c0,0.1,0,0.3,0,0.4v60.6c0,0.1,0,0.3,0,0.4c0,0.1,0,0.2,0,0.3c0,0.1,0,0.1,0,0.2c-0.4,7-6.2,12.5-13.2,12.5
		h-59.8C-250.4,440.6-256.1,435.2-256.6,428.2L-256.6,428.2z"/>
</g>
<g id="Layer_2_1_">
	<g id="Layer_1-2_1_">
		<path class="st1" d="M-200.2,392.5v32.4H-248v-32.2c0.2,0,0.4,0,0.6,0h9.8c0.3-0.1,0.7,0.1,0.9,0.4c2,3.2,6.2,4.2,9.4,2.2
			c0.9-0.5,1.6-1.3,2.2-2.2c0.2-0.4,0.7-0.7,1.2-0.7c7.6,0,15.3,0,22.9,0H-200.2z M-236.7,412.3h4.6c0.9,0.1,1.7-0.5,1.8-1.4
			c0-0.1,0-0.3,0-0.4c0-3.1,0-6.1,0-9.2c0.1-0.9-0.5-1.7-1.4-1.8c-0.1,0-0.3,0-0.4,0c-3.1,0-6.2,0-9.3,0c-0.9-0.1-1.7,0.5-1.8,1.4
			c0,0.1,0,0.3,0,0.4c0,3.1,0,6.1,0,9.2c-0.1,0.9,0.5,1.7,1.4,1.8c0.1,0,0.3,0,0.4,0L-236.7,412.3z M-224.2,420.7h17.2
			c0.9,0.1,1.7-0.6,1.8-1.5c0-0.3,0-0.6-0.1-0.9c-0.3-0.7-1.1-1.1-1.8-1H-241c-1.4,0-2.2,0.6-2.2,1.6c0,1.1,0.8,1.6,2.2,1.6
			L-224.2,420.7z"/>
		<path class="st0" d="M-189.5,394.6l-7.7,7.5v-9.9c0.2-1.4-0.7-2.7-2.1-2.9c-0.3,0-0.5,0-0.8,0h-11.8c-0.5,0-0.9-0.2-1.2-0.5
			c-2.4-2.7-4.9-5.3-7.3-8c-0.5-0.5-1.1-1-1.9-0.7c-0.5,0.2-1,0.5-1.2,1c-1.4,3.2-2.8,6.5-4.2,9.8c-0.7,1.7-2.7,2.6-4.5,2
			c-1.9-0.8-2.8-2.9-2-4.7c0.9-2.4,1.9-4.8,2.9-7.2l3.6-8.7c0.8-2.4,3.3-3.7,5.7-2.9c0.3,0.1,0.7,0.3,1,0.5l15,7.8
			c0.3,0.1,0.6,0.3,0.8,0.5c5.2,5.3,10.4,10.7,15.6,16C-189.7,394.4-189.6,394.5-189.5,394.6z"/>
		<path class="st0" d="M-178.9,384.4l-8.3,8l-15.2-15.6l8.2-7.7L-178.9,384.4z M-186.8,388.4c2.4-0.1,4.2-2.1,4.1-4.5
			c-0.1-2.2-1.8-3.9-4-4.1c-2.4-0.1-4.4,1.6-4.5,4c-0.1,2.4,1.6,4.4,4,4.5C-187.1,388.4-187,388.4-186.8,388.4z"/>
		<path class="st0" d="M-186.8,386.2c-1.1,0-2.1-0.9-2.1-2c0-1.1,0.9-2.1,2-2.1c1.1,0,2.1,0.9,2.1,2
			C-184.7,385.3-185.6,386.2-186.8,386.2z"/>
	</g>
</g>
</svg>
