<?xml version="1.0" encoding="utf-8"?>
<!-- Generator: Adobe Illustrator 19.1.0, SVG Export Plug-In . SVG Version: 6.00 Build 0)  -->
<svg version="1.1" id="Layer_1" xmlns="http://www.w3.org/2000/svg" xmlns:xlink="http://www.w3.org/1999/xlink" x="0px" y="0px"
	 width="35px" height="20px" viewBox="-942 146 35 20" style="enable-background:new -942 146 35 20;" xml:space="preserve">
<style type="text/css">
	.st0{fill:#FFA100;}
</style>
<g>
	<path class="st0" d="M-912.9,151.6h-23.1c-0.4,0-0.8-0.3-0.8-0.8v-1.8c0-0.4,0.3-0.8,0.8-0.8h23.1c0.4,0,0.8,0.3,0.8,0.8v1.8
		C-912.2,151.3-912.5,151.6-912.9,151.6z"/>
	<path class="st0" d="M-912.9,157.6h-23.1c-0.4,0-0.8-0.3-0.8-0.8v-1.8c0-0.4,0.3-0.8,0.8-0.8h23.1c0.4,0,0.8,0.3,0.8,0.8v1.8
		C-912.2,157.3-912.5,157.6-912.9,157.6z"/>
	<path class="st0" d="M-912.9,163.6h-23.1c-0.4,0-0.8-0.3-0.8-0.8v-1.8c0-0.4,0.3-0.8,0.8-0.8h23.1c0.4,0,0.8,0.3,0.8,0.8v1.8
		C-912.2,163.3-912.5,163.6-912.9,163.6z"/>
</g>
</svg>
