<svg id="Layer_1" data-name="Layer 1" xmlns="http://www.w3.org/2000/svg" width="64" height="64" viewBox="0 0 64 64"><defs><style>.cls-1{fill:#070707;}</style></defs><title>ico-favo</title><path id="rate" class="cls-1" d="M31.31,17.94c.38-.77,1-.77,1.38,0l3.6,7.31a3.33,3.33,0,0,0,2.22,1.61L46.58,28c.84.12,1,.71.42,1.31L41.17,35a3.27,3.27,0,0,0-.85,2.6l1.38,8c.14.84-.36,1.2-1.11.8l-7.22-3.79a3.28,3.28,0,0,0-2.74,0l-7.22,3.79c-.75.4-1.25,0-1.11-.8l1.38-8a3.27,3.27,0,0,0-.85-2.6L17,29.34c-.61-.6-.42-1.19.42-1.31l8.07-1.17a3.33,3.33,0,0,0,2.22-1.61Z"/></svg>