<?xml version="1.0" encoding="utf-8"?>
<!-- Generator: Adobe Illustrator 19.1.0, SVG Export Plug-In . SVG Version: 6.00 Build 0)  -->
<svg version="1.1" id="Layer_1" xmlns="http://www.w3.org/2000/svg" xmlns:xlink="http://www.w3.org/1999/xlink" x="0px" y="0px"
	 width="64px" height="64px" viewBox="-927 124 64 64" style="enable-background:new -927 124 64 64;" xml:space="preserve">
<style type="text/css">
	.st0{fill:#006643;}
</style>
<g>
	<path class="st0" d="M-909,162.2c-0.9-0.4-1.6-1-2-1.7c-0.4-0.7-0.7-1.5-0.7-2.4c0-0.7,0.1-1.6,0.3-2.5l2.1-0.7l0.2,0.1
		c-0.1,0.4-0.1,0.7-0.1,1.1s-0.1,0.6-0.1,0.8c0,0.7,0.1,1.2,0.3,1.7s0.7,0.8,1.2,1.1s1.4,0.4,2.5,0.4c1.2,0,2.3-0.1,3.3-0.4
		c1-0.2,1.7-0.5,2-1c0-0.2-0.2-0.6-0.7-0.8s-1.3-0.6-2.6-0.8l0.7-2.3c1.2,0.4,2.2,0.6,2.9,1c0.7,0.4,1.2,0.7,1.4,1.1
		c0.3,0.4,0.4,0.8,0.4,1.3c0,1-0.4,1.8-1.1,2.4c-0.7,0.6-1.7,1.2-2.9,1.6c-1.2,0.4-2.6,0.6-4,0.6C-907,162.8-908.1,162.6-909,162.2z
		 M-902.4,166l-1.3,2.1l-1.9-1.5l-0.9,1.5l-2-1.6l1.2-2.1l2,1.5l0.9-1.5L-902.4,166z"/>
	<path class="st0" d="M-902.3,154.7c0.8-0.2,1.2-0.5,1.6-0.7c-0.1-0.5-0.2-1-0.3-1.5s-0.4-1.1-0.8-1.7l1.9-1.8h0.2
		c0.3,1,0.7,1.7,0.8,2.4c0.1,0.7,0.2,1.2,0.2,1.7c0,0.7-0.1,1.2-0.4,1.7c-0.2,0.5-0.8,0.8-1.4,1.2l-1-0.1L-902.3,154.7z
		 M-898.8,166.5l-2.1-1.6l1.3-2.2l2.1,1.6L-898.8,166.5z"/>
	<path class="st0" d="M-888.1,156.3c0.1,0.1,0.2,0.4,0.2,0.6c0,0.6-0.1,1-0.3,1.3c-0.2,0.4-0.6,0.5-1,0.5c-0.7,0-1.1-0.1-1.6-0.4
		c-0.3,1-0.9,1.7-1.8,2.4s-1.9,1.2-3,1.6l-1.2-1.9l0.1-0.2c1.2-0.4,2.2-0.8,2.8-1.3c0.7-0.5,1.1-1.1,1.4-1.7c-0.3-1-0.9-2.1-1.4-3.5
		l1.8-2.2h0.2c0.1,0.4,0.2,0.6,0.3,1c0.1,0.4,0.2,0.6,0.3,1c0.1,0.2,0.1,0.4,0.2,0.5c0,0.1,0.1,0.2,0.1,0.4c0.2,0.6,0.3,1,0.6,1.2
		c0.2,0.2,0.4,0.5,0.7,0.5c0.2,0.1,0.7,0.1,1.1,0.1C-888.5,156.1-888.3,156.2-888.1,156.3z"/>
	<path class="st0" d="M-879.6,155.8l-0.8,2.4c-0.9,0.1-2,0.4-3.3,0.4c-1.3,0.1-3.2,0.1-5.6,0.1l0.6-2.7h1.4
		c-0.3-0.7-0.4-1.5-0.4-2.1c0-0.8,0.2-1.6,0.6-2.3c0.3-0.6,0.9-1.1,1.6-1.5c0.7-0.4,1.3-0.5,2.1-0.5c0.4,0,1,0,1.4,0.1
		c0.6,0.1,1,0.2,1.4,0.5l-0.3,2.3l-0.1,0.1c-0.8-0.2-1.6-0.4-2.1-0.4c-0.6,0-1.1,0.1-1.4,0.5c-0.3,0.4-0.4,0.7-0.4,1.3
		c0,0.2,0.1,0.6,0.2,1c0.1,0.4,0.3,0.6,0.6,1c1.8-0.1,3.2-0.2,4.6-0.4L-879.6,155.8z"/>
</g>
</svg>
