<svg width="236" height="37" viewBox="0 0 236 37" fill="none" xmlns="http://www.w3.org/2000/svg">
<path d="M28.5451 0.467773H33.4577V36.5887H29.0105L4.86094 8.79342V36.5887H0C0 22.4826 0 0.467773 0 0.467773C0 0.467773 2.5529 0.467773 4.18868 0.467773C4.18868 0.467773 18.7171 17.1863 28.0263 27.8988C28.2289 28.1319 28.5451 28.4957 28.5451 28.4957V0.467773Z" fill="#00643E"/>
<path d="M47.6175 36.5887H35.3876V0.467773H44.8509C47.833 0.467773 50.16 0.872852 51.8321 1.68301C53.5041 2.47593 54.7797 3.57912 55.6588 4.99258C56.5379 6.38881 56.9774 8.00912 56.9774 9.85352C56.9774 13.4044 55.1416 15.9469 51.4701 17.4811C54.1074 17.9809 56.2017 19.0669 57.7531 20.7389C59.3217 22.4109 60.106 24.4105 60.106 26.7375C60.106 28.5819 59.632 30.2281 58.6839 31.676C57.7359 33.124 56.3396 34.3047 54.4952 35.2183C52.6681 36.1319 50.3755 36.5887 47.6175 36.5887ZM45.0061 5.07015H40.5588V15.9297H43.9977C46.7557 15.9297 48.7121 15.4039 49.867 14.3525C51.0392 13.301 51.6252 11.9392 51.6252 10.2672C51.6252 6.80251 49.4188 5.07015 45.0061 5.07015ZM45.3939 20.5321H40.5588V31.9863H45.6525C48.4794 31.9863 50.3927 31.7708 51.3925 31.3399C52.4095 30.8917 53.2197 30.2022 53.823 29.2714C54.4435 28.3406 54.7538 27.3408 54.7538 26.2721C54.7538 25.1689 54.4263 24.1605 53.7713 23.247C53.1335 22.3334 52.2199 21.6525 51.0305 21.2043C49.8412 20.7562 47.9623 20.5321 45.3939 20.5321Z" fill="#00643E"/>
<path d="M60.9892 0.467773H81.4672V5.07015H66.1605V16.0848H80.9501V20.7131H66.1605V31.9346H81.9585V36.537H60.9892V0.467773Z" fill="#00643E"/>
<path d="M118.015 28.2089V33.8973C114.223 35.9658 109.845 37 104.88 37C100.847 37 97.425 36.1898 94.6153 34.5695C91.8056 32.9492 89.582 30.717 87.9445 27.8728C86.3069 25.0287 85.4881 21.9518 85.4881 18.6422C85.4881 13.3848 87.3584 8.96343 91.0989 5.37806C94.8567 1.79269 99.4849 0 104.984 0C108.776 0 112.99 0.991148 117.627 2.97345V8.53249C113.404 6.11926 109.276 4.91265 105.242 4.91265C101.105 4.91265 97.6663 6.22269 94.9256 8.84277C92.2021 11.4456 90.8403 14.7121 90.8403 18.6422C90.8403 22.6068 92.1849 25.8647 94.8739 28.4158C97.5629 30.9669 101.002 32.2425 105.19 32.2425C109.569 32.2425 113.844 30.898 118.015 28.2089Z" fill="url(#paint0_linear_0_53)"/>
<path d="M119.39 0.465409H124.095V15.9273C126.06 13.5313 128.5 12.3333 131.413 12.3333C132.998 12.3333 134.421 12.7298 135.679 13.5227C136.937 14.3156 137.868 15.4102 138.471 16.8064C139.092 18.2027 139.402 20.2798 139.402 23.0377V36.5863H134.696V21.8742C134.696 20.1332 134.265 18.737 133.404 17.6855C132.559 16.6168 131.438 16.0825 130.042 16.0825C129.008 16.0825 128.034 16.3496 127.121 16.884C126.207 17.4184 125.199 18.3061 124.095 19.5472V36.5863H119.39V0.465409Z" fill="url(#paint1_linear_0_53)"/>
<path d="M156.678 22.2879V32.3976C156.678 33.2078 156.954 33.6129 157.506 33.6129C158.074 33.6129 158.962 33.1905 160.169 32.3459V35.2159C159.1 35.9054 158.238 36.3708 157.583 36.6122C156.945 36.8707 156.273 37 155.566 37C153.55 37 152.36 36.2071 151.998 34.6212C149.999 36.1726 147.87 36.9483 145.612 36.9483C143.957 36.9483 142.578 36.4053 141.475 35.3194C140.372 34.2162 139.82 32.8372 139.82 31.1824C139.82 29.6827 140.354 28.3468 141.423 27.1747C142.509 25.9853 144.043 25.0459 146.025 24.3564L152.05 22.2879V21.021C152.05 18.1596 150.619 16.7289 147.758 16.7289C145.189 16.7289 142.69 18.0561 140.26 20.7107V15.5653C142.087 13.4107 144.715 12.3333 148.146 12.3333C150.714 12.3333 152.774 13.0056 154.325 14.3501C154.842 14.781 155.308 15.3585 155.721 16.0825C156.135 16.7892 156.394 17.5045 156.497 18.2285C156.618 18.9352 156.678 20.2884 156.678 22.2879ZM152.05 31.8805V24.8218L148.895 26.037C147.292 26.6748 146.155 27.3212 145.482 27.9762C144.827 28.614 144.5 29.4156 144.5 30.3809C144.5 31.3634 144.81 32.1649 145.431 32.7855C146.069 33.406 146.887 33.7163 147.887 33.7163C149.387 33.7163 150.774 33.1044 152.05 31.8805Z" fill="url(#paint2_linear_0_53)"/>
<path d="M156.76 16.5737L165.603 7.88609V12.7987H171.334V17.0391H169.365H165.603V28.7002C165.603 31.4237 166.732 32.7855 168.99 32.7855C170.679 32.7855 172.463 32.2166 174.342 31.079V35.4745C172.532 36.4915 170.558 37 168.421 37C166.266 37 164.474 36.3708 163.043 35.1125C162.595 34.7333 162.224 34.311 161.931 33.8456C161.638 33.3629 161.388 32.7424 161.181 31.9839C160.992 31.2082 160.897 29.7431 160.897 27.5884V17.0391H156.76V16.5737Z" fill="url(#paint3_linear_0_53)"/>
<path d="M173.286 0.465409H177.992V14.5052C180.026 13.0228 182.198 12.2816 184.507 12.2816C187.524 12.2816 189.989 13.4193 191.902 15.6946C193.816 17.97 194.772 20.8917 194.772 24.4598C194.772 28.2865 193.626 31.3375 191.333 33.6129C189.058 35.871 186.007 37 182.18 37C180.646 37 179.026 36.8362 177.32 36.5087C175.63 36.1812 174.286 35.7675 173.286 35.2676V0.465409ZM177.992 19.0042V31.8805C179.595 32.3632 181.241 32.6045 182.93 32.6045C185.016 32.6045 186.714 31.8633 188.024 30.3809C189.351 28.8984 190.015 26.9937 190.015 24.6667C190.015 22.3051 189.394 20.3832 188.153 18.9008C186.929 17.4184 185.326 16.6771 183.344 16.6771C181.586 16.6771 179.802 17.4528 177.992 19.0042Z" fill="url(#paint4_linear_0_53)"/>
<path d="M207.963 12.747C211.583 12.747 214.591 13.9192 216.987 16.2635C219.383 18.5905 220.581 21.5208 220.581 25.0545C220.581 28.4847 219.366 31.3375 216.935 33.6129C214.505 35.871 211.445 37 207.756 37C204.188 37 201.206 35.8537 198.81 33.5611C196.414 31.2513 195.216 28.3727 195.216 24.9252C195.216 21.4433 196.423 18.5474 198.836 16.2376C201.266 13.9106 204.309 12.747 207.963 12.747ZM207.704 16.9874C205.446 16.9874 203.593 17.7286 202.145 19.211C200.698 20.6935 199.974 22.5809 199.974 24.8735C199.974 27.1488 200.715 29.0105 202.197 30.4584C203.68 31.8891 205.584 32.6045 207.911 32.6045C210.221 32.6045 212.109 31.8805 213.574 30.4326C215.056 28.9674 215.797 27.0971 215.797 24.8218C215.797 22.5637 215.03 20.6935 213.496 19.211C211.962 17.7286 210.032 16.9874 207.704 16.9874Z" fill="url(#paint5_linear_0_53)"/>
<path d="M218.002 16.5737L226.845 7.88609V12.7987H234.369V17.0391H226.845V28.7002C226.845 31.4237 227.974 32.7855 230.232 32.7855C231.921 32.7855 233.705 32.2166 235.584 31.079V35.4745C233.774 36.4915 231.801 37 229.663 37C227.508 37 225.716 36.3708 224.285 35.1125C223.837 34.7333 223.466 34.311 223.173 33.8456C222.88 33.3629 222.63 32.7424 222.423 31.9839C222.234 31.2082 222.139 29.7431 222.139 27.5884V17.0391H218.002V16.5737Z" fill="url(#paint6_linear_0_53)"/>
<defs>
<linearGradient id="paint0_linear_0_53" x1="92.4341" y1="3.93184" x2="238.055" y2="36.9393" gradientUnits="userSpaceOnUse">
<stop stop-color="#F8CD21"/>
<stop offset="1" stop-color="#F17A23"/>
</linearGradient>
<linearGradient id="paint1_linear_0_53" x1="92.4341" y1="3.93184" x2="238.055" y2="36.9393" gradientUnits="userSpaceOnUse">
<stop stop-color="#F8CD21"/>
<stop offset="1" stop-color="#F17A23"/>
</linearGradient>
<linearGradient id="paint2_linear_0_53" x1="92.4341" y1="3.93184" x2="238.055" y2="36.9393" gradientUnits="userSpaceOnUse">
<stop stop-color="#F8CD21"/>
<stop offset="1" stop-color="#F17A23"/>
</linearGradient>
<linearGradient id="paint3_linear_0_53" x1="92.4341" y1="3.93184" x2="238.055" y2="36.9393" gradientUnits="userSpaceOnUse">
<stop stop-color="#F8CD21"/>
<stop offset="1" stop-color="#F17A23"/>
</linearGradient>
<linearGradient id="paint4_linear_0_53" x1="92.4341" y1="3.93184" x2="238.055" y2="36.9393" gradientUnits="userSpaceOnUse">
<stop stop-color="#F8CD21"/>
<stop offset="1" stop-color="#F17A23"/>
</linearGradient>
<linearGradient id="paint5_linear_0_53" x1="92.4341" y1="3.93184" x2="238.055" y2="36.9393" gradientUnits="userSpaceOnUse">
<stop stop-color="#F8CD21"/>
<stop offset="1" stop-color="#F17A23"/>
</linearGradient>
<linearGradient id="paint6_linear_0_53" x1="92.4341" y1="3.93184" x2="238.055" y2="36.9393" gradientUnits="userSpaceOnUse">
<stop stop-color="#F8CD21"/>
<stop offset="1" stop-color="#F17A23"/>
</linearGradient>
</defs>
</svg>