<svg width="142" height="242" viewBox="0 0 142 242" fill="none" xmlns="http://www.w3.org/2000/svg">
<path d="M122.78 58.5696C122.78 68.6554 114.714 76.8188 104.776 76.8188V77.2585L104.74 76.8205L83.2622 78.5841C74.7774 79.2803 66.2529 79.2803 57.768 78.5841L36.2906 76.8205L36.2702 76.8188H36.2497C26.3115 76.8188 18.2452 68.6554 18.2452 58.5696V22.34C18.2452 12.5359 25.8698 4.54521 35.4244 4.11038C35.9894 4.08516 36.5744 4.05175 37.1569 3.97043L37.1569 3.97043L53.5836 1.67672L53.5144 1.18152L53.5836 1.67671C64.817 0.107919 76.2084 0.107919 87.4417 1.67671L103.868 3.97043L103.938 3.47524L103.868 3.97043C104.451 4.05174 105.036 4.08516 105.601 4.11038C115.156 4.54765 122.78 12.536 122.78 22.34V58.5696Z" fill="url(#paint0_linear_0_34)" stroke="#00643E"/>
<path d="M35.0685 20.3331H105.96C106.932 20.3331 107.72 21.121 107.72 22.093V63.5016C107.72 64.4735 106.932 65.2614 105.96 65.2614H35.0685C34.0965 65.2614 33.3086 64.4735 33.3086 63.5016V22.093C33.3086 21.121 34.0965 20.3331 35.0685 20.3331Z" stroke="#00643E"/>
<path d="M61.3042 10.0323H79.7248C79.9737 10.0323 80.1754 10.2341 80.1754 10.483V12.8313C80.1754 13.0802 79.9737 13.282 79.7248 13.282H61.3042C61.0553 13.282 60.8536 13.0802 60.8536 12.8313V10.483C60.8536 10.2341 61.0553 10.0323 61.3042 10.0323Z" stroke="#00643E" stroke-width="0.5"/>
<path d="M62.7441 12.5947C63.2618 12.5947 63.6815 12.175 63.6815 11.6573C63.6815 11.1395 63.2618 10.7198 62.7441 10.7198C62.2264 10.7198 61.8067 11.1395 61.8067 11.6573C61.8067 12.175 62.2264 12.5947 62.7441 12.5947Z" fill="#878787"/>
<path d="M78.015 12.9968C78.7546 12.9968 79.3541 12.3972 79.3541 11.6576C79.3541 10.918 78.7546 10.3185 78.015 10.3185C77.2754 10.3185 76.6758 10.918 76.6758 11.6576C76.6758 12.3972 77.2754 12.9968 78.015 12.9968Z" fill="#878787"/>
<path d="M74.3675 11.1222H66.6578C66.568 11.1222 66.4952 11.195 66.4952 11.2848V12.0309C66.4952 12.1207 66.568 12.1935 66.6578 12.1935H74.3675C74.4573 12.1935 74.5301 12.1207 74.5301 12.0309V11.2848C74.5301 11.195 74.4573 11.1222 74.3675 11.1222Z" fill="#878787"/>
<path d="M94.8125 42.7819L90.5559 42.2701C90.7783 40.3881 90.9505 34.4863 88.8963 32.1762C88.3415 31.5521 87.6911 31.2747 86.7896 31.2747C85.888 31.2747 85.2376 31.5521 84.6828 32.1762C82.631 34.4863 82.8032 40.3857 83.0232 42.2701L78.7666 42.7795C78.6542 41.8421 77.7742 33.5034 81.4736 29.3353C82.8343 27.8001 84.6732 26.9894 86.7896 26.9894C88.9059 26.9894 90.7425 27.8001 92.1055 29.3353C95.8026 33.5034 94.9249 41.8421 94.8125 42.7795V42.7819Z" fill="#00643E"/>
<path d="M62.667 42.7819L58.4104 42.2701C58.6328 40.3881 58.8049 34.4863 56.7508 32.1762C56.196 31.5521 55.5455 31.2747 54.644 31.2747C53.7425 31.2747 53.092 31.5521 52.5372 32.1762C50.4854 34.4863 50.6576 40.3857 50.8776 42.2701L46.621 42.7795C46.5086 41.8421 45.6286 33.5034 49.328 29.3353C50.6887 27.8001 52.5277 26.9894 54.644 26.9894C56.7603 26.9894 58.5969 27.8001 59.96 29.3353C63.657 33.5034 62.7794 41.8421 62.667 42.7795V42.7819Z" fill="#00643E"/>
<path d="M78.8747 49.2618C78.8747 54.5067 74.6236 58.7578 69.3788 58.7578C64.1339 58.7578 59.8829 54.5067 59.8829 49.2618" fill="#00643E"/>
<g clip-path="url(#clip0_0_34)">
<path d="M111.908 229.526C100.703 236.672 86.5054 240.628 71.9139 240.658L71.9121 240.657H71.7421C59.6909 240.657 47.9747 238.024 37.8601 233.053C27.9026 228.158 19.997 221.259 14.9817 213.117L14.9814 213.116C12.6326 209.312 10.9461 205.265 9.96474 201.088L5.99632 184.113L5.99631 184.113C1.87442 166.491 0.57652 148.752 2.1383 131.391L2.13848 131.389L2.14208 131.347C2.15095 131.243 2.15952 131.142 2.17097 131.04L2.17104 131.04L2.17186 131.032L5.26161 98.553L5.26374 98.5306L5.26385 98.508C5.2789 95.2244 7.02366 92.2129 9.90113 90.0025C12.7789 87.792 16.7686 86.4037 21.1906 86.3873L21.2093 86.3872L21.2278 86.3857L38.6534 85.0206C40.6985 85.0189 42.7185 84.7493 44.655 84.2189L44.6551 84.2189C46.848 83.6177 49.1377 83.3123 51.4599 83.3123H92.0163C94.2285 83.3123 96.398 83.6201 98.4626 84.2256L98.4631 84.2257C100.266 84.7525 102.153 85.0197 104.069 85.0206L104.209 85.026L121.481 86.3857L121.499 86.3872L121.518 86.3873C125.94 86.4037 129.929 87.7916 132.807 90.0016C135.684 92.2114 137.429 95.2221 137.445 98.5051L137.445 98.5292L137.447 98.5532L140.28 126.405C140.28 126.405 140.28 126.405 140.28 126.406C141.423 138.331 141.468 150.516 140.413 162.616C139.515 172.964 137.791 183.453 135.286 193.79L133.447 201.382C133.447 201.382 133.447 201.382 133.447 201.382C130.786 212.354 123.155 222.357 111.908 229.526L112.177 229.948L111.908 229.526Z" fill="#EFEFEF" stroke="#136335"/>
<path d="M86.9776 78.7109H55.7979V83.4941H86.9776V78.7109Z" fill="#136335"/>
</g>
<defs>
<linearGradient id="paint0_linear_0_34" x1="158.749" y1="13.7555" x2="26.9991" y2="52.5885" gradientUnits="userSpaceOnUse">
<stop offset="0.276573" stop-color="white"/>
<stop offset="0.633384" stop-color="#FAFAFA"/>
<stop offset="0.817959" stop-color="#EEEEEE"/>
<stop offset="0.898585" stop-color="#E6E6E6"/>
</linearGradient>
<clipPath id="clip0_0_34">
<rect width="140.675" height="162.446" fill="white" transform="translate(0.998047 78.7109)"/>
</clipPath>
</defs>
</svg>